<svg width="95" height="24" viewBox="0 0 95 24" xmlns="http://www.w3.org/2000/svg" fill="currentColor" id="icon-tagline-wrapper"><path d="M9.65206 5.928V17H7.30006V7.768H3.68406V17H1.33206V5.928H9.65206ZM16.5319 8.264C17.5986 8.264 18.3879 8.65867 18.8999 9.448C19.4226 10.2267 19.6839 11.3253 19.6839 12.744C19.6839 13.608 19.5506 14.3813 19.2839 15.064C19.0173 15.7467 18.6279 16.2853 18.1159 16.68C17.6146 17.064 17.0173 17.256 16.3239 17.256C15.4599 17.256 14.7613 16.952 14.2279 16.344V20.264L11.9559 20.52V8.52H13.9559L14.0679 9.512C14.3879 9.096 14.7613 8.78667 15.1879 8.584C15.6253 8.37067 16.0733 8.264 16.5319 8.264ZM15.6519 15.56C16.7613 15.56 17.3159 14.6267 17.3159 12.76C17.3159 11.736 17.1933 11.0107 16.9479 10.584C16.7026 10.1573 16.3293 9.944 15.8279 9.944C15.5079 9.944 15.2093 10.0453 14.9319 10.248C14.6653 10.44 14.4306 10.7013 14.2279 11.032V14.728C14.5906 15.2827 15.0653 15.56 15.6519 15.56ZM28.7352 17H26.5592V13.784C26.5592 13.176 26.5912 12.6 26.6552 12.056C26.7192 11.512 26.7885 11.08 26.8632 10.76L23.8552 17H21.4872V8.52H23.6632V11.768C23.6632 12.344 23.6312 12.9147 23.5672 13.48C23.5139 14.0347 23.4499 14.4613 23.3752 14.76L26.3352 8.52H28.7352V17ZM35.5476 8.264C36.6142 8.264 37.4036 8.65867 37.9156 9.448C38.4382 10.2267 38.6996 11.3253 38.6996 12.744C38.6996 13.608 38.5662 14.3813 38.2996 15.064C38.0329 15.7467 37.6436 16.2853 37.1316 16.68C36.6302 17.064 36.0329 17.256 35.3396 17.256C34.4756 17.256 33.7769 16.952 33.2436 16.344V20.264L30.9716 20.52V8.52H32.9716L33.0836 9.512C33.4036 9.096 33.7769 8.78667 34.2036 8.584C34.6409 8.37067 35.0889 8.264 35.5476 8.264ZM34.6676 15.56C35.7769 15.56 36.3316 14.6267 36.3316 12.76C36.3316 11.736 36.2089 11.0107 35.9636 10.584C35.7182 10.1573 35.3449 9.944 34.8436 9.944C34.5236 9.944 34.2249 10.0453 33.9476 10.248C33.6809 10.44 33.4462 10.7013 33.2436 11.032V14.728C33.6062 15.2827 34.0809 15.56 34.6676 15.56ZM44.0708 8.264C45.3401 8.264 46.3321 8.664 47.0468 9.464C47.7615 10.2533 48.1188 11.352 48.1188 12.76C48.1188 13.656 47.9535 14.4453 47.6228 15.128C47.3028 15.8 46.8335 16.3227 46.2148 16.696C45.6068 17.0693 44.8868 17.256 44.0548 17.256C42.7855 17.256 41.7881 16.8613 41.0628 16.072C40.3481 15.272 39.9908 14.168 39.9908 12.76C39.9908 11.864 40.1508 11.08 40.4708 10.408C40.8015 9.72533 41.2708 9.19733 41.8788 8.824C42.4975 8.45067 43.2281 8.264 44.0708 8.264ZM44.0708 9.96C43.4948 9.96 43.0628 10.1893 42.7748 10.648C42.4975 11.096 42.3588 11.8 42.3588 12.76C42.3588 13.72 42.4975 14.4293 42.7748 14.888C43.0628 15.336 43.4895 15.56 44.0548 15.56C44.6201 15.56 45.0415 15.336 45.3188 14.888C45.6068 14.4293 45.7508 13.72 45.7508 12.76C45.7508 11.8 45.6121 11.096 45.3348 10.648C45.0575 10.1893 44.6361 9.96 44.0708 9.96ZM57.1943 15.304V19.592H55.5783L55.3063 17H50.4583L50.1863 19.592H48.5703V15.304H49.1143C49.317 15.1547 49.4823 14.9733 49.6103 14.76C49.749 14.5467 49.8716 14.184 49.9783 13.672C50.085 13.16 50.1756 12.424 50.2503 11.464L50.4743 8.52H56.2983V15.304H57.1943ZM54.1543 10.072H52.4423L52.3463 11.24C52.2716 12.136 52.1756 12.8453 52.0583 13.368C51.9516 13.88 51.8023 14.2853 51.6103 14.584C51.429 14.872 51.1783 15.112 50.8583 15.304H54.1543V10.072ZM63.4769 17V13.544H60.8529V17H58.5809V8.52H60.8529V11.832H63.4769V8.52H65.7489V17H63.4769ZM70.2592 8.52V17H67.9872V8.52H70.2592ZM69.1072 4.152C69.5125 4.152 69.8432 4.28 70.0992 4.536C70.3659 4.78133 70.4992 5.096 70.4992 5.48C70.4992 5.864 70.3659 6.184 70.0992 6.44C69.8432 6.68533 69.5125 6.808 69.1072 6.808C68.7019 6.808 68.3712 6.68533 68.1152 6.44C67.8592 6.184 67.7312 5.864 67.7312 5.48C67.7312 5.096 67.8592 4.78133 68.1152 4.536C68.3712 4.28 68.7019 4.152 69.1072 4.152ZM76.0388 8.264C76.6041 8.264 77.1108 8.34933 77.5588 8.52C78.0175 8.68 78.4495 8.936 78.8548 9.288L77.8628 10.632C77.5855 10.4187 77.3135 10.264 77.0468 10.168C76.7908 10.072 76.5081 10.024 76.1988 10.024C74.9935 10.024 74.3908 10.952 74.3908 12.808C74.3908 13.7467 74.5455 14.4187 74.8548 14.824C75.1641 15.2293 75.6068 15.432 76.1828 15.432C76.4815 15.432 76.7535 15.3893 76.9988 15.304C77.2441 15.208 77.5321 15.0533 77.8628 14.84L78.8548 16.264C78.0441 16.9253 77.1161 17.256 76.0708 17.256C75.2388 17.256 74.5135 17.0747 73.8948 16.712C73.2868 16.3493 72.8175 15.8373 72.4868 15.176C72.1561 14.504 71.9908 13.72 71.9908 12.824C71.9908 11.928 72.1561 11.1387 72.4868 10.456C72.8175 9.76267 73.2868 9.224 73.8948 8.84C74.5135 8.456 75.2281 8.264 76.0388 8.264ZM86.5754 8.52L86.2874 10.232H83.8874V17H81.6154V10.232H79.0714V8.52H86.5754ZM90.6042 11.176C91.9482 11.176 92.9295 11.4267 93.5482 11.928C94.1775 12.4187 94.4922 13.1387 94.4922 14.088C94.4922 15.0373 94.1615 15.7627 93.5002 16.264C92.8495 16.7547 92.0015 17 90.9562 17H87.6122V8.52H89.8842V11.176H90.6042ZM90.7322 15.464C91.6815 15.464 92.1562 14.9947 92.1562 14.056C92.1562 13.5867 92.0389 13.24 91.8042 13.016C91.5695 12.792 91.1642 12.68 90.5882 12.68H89.8842V15.464H90.7322Z"/></svg>