<svg width="72" height="24" viewBox="0 0 72 24" xmlns="http://www.w3.org/2000/svg" fill="currentColor" id="icon-tagline-wrapper"><path d="M9.488 5.928V17H7.136V7.768H3.52V17H1.168V5.928H9.488ZM18.9599 12.568C18.9599 12.6747 18.9439 12.968 18.9119 13.448H13.6159C13.6905 14.216 13.8985 14.76 14.2399 15.08C14.5812 15.4 15.0452 15.56 15.6319 15.56C15.9945 15.56 16.3359 15.5013 16.6559 15.384C16.9759 15.2667 17.3225 15.08 17.6959 14.824L18.6399 16.104C17.6905 16.872 16.6185 17.256 15.4239 17.256C14.0905 17.256 13.0665 16.856 12.3519 16.056C11.6372 15.256 11.2799 14.1733 11.2799 12.808C11.2799 11.944 11.4292 11.1707 11.7279 10.488C12.0372 9.79467 12.4799 9.25067 13.0559 8.856C13.6425 8.46133 14.3359 8.264 15.1359 8.264C16.3412 8.264 17.2799 8.64267 17.9519 9.4C18.6239 10.1573 18.9599 11.2133 18.9599 12.568ZM16.7039 11.928C16.7039 10.52 16.1972 9.816 15.1839 9.816C14.7145 9.816 14.3465 9.992 14.0799 10.344C13.8239 10.6853 13.6692 11.2453 13.6159 12.024H16.7039V11.928ZM25.1804 8.264C26.247 8.264 27.0364 8.65867 27.5484 9.448C28.071 10.2267 28.3324 11.3253 28.3324 12.744C28.3324 13.608 28.199 14.3813 27.9324 15.064C27.6657 15.7467 27.2764 16.2853 26.7644 16.68C26.263 17.064 25.6657 17.256 24.9724 17.256C24.1084 17.256 23.4097 16.952 22.8764 16.344V20.264L20.6044 20.52V8.52H22.6044L22.7164 9.512C23.0364 9.096 23.4097 8.78667 23.8364 8.584C24.2737 8.37067 24.7217 8.264 25.1804 8.264ZM24.3004 15.56C25.4097 15.56 25.9644 14.6267 25.9644 12.76C25.9644 11.736 25.8417 11.0107 25.5964 10.584C25.351 10.1573 24.9777 9.944 24.4764 9.944C24.1564 9.944 23.8577 10.0453 23.5804 10.248C23.3137 10.44 23.079 10.7013 22.8764 11.032V14.728C23.239 15.2827 23.7137 15.56 24.3004 15.56ZM37.3036 12.568C37.3036 12.6747 37.2876 12.968 37.2556 13.448H31.9596C32.0343 14.216 32.2423 14.76 32.5836 15.08C32.925 15.4 33.389 15.56 33.9756 15.56C34.3383 15.56 34.6796 15.5013 34.9996 15.384C35.3196 15.2667 35.6663 15.08 36.0396 14.824L36.9836 16.104C36.0343 16.872 34.9623 17.256 33.7676 17.256C32.4343 17.256 31.4103 16.856 30.6956 16.056C29.981 15.256 29.6236 14.1733 29.6236 12.808C29.6236 11.944 29.773 11.1707 30.0716 10.488C30.381 9.79467 30.8236 9.25067 31.3996 8.856C31.9863 8.46133 32.6796 8.264 33.4796 8.264C34.685 8.264 35.6236 8.64267 36.2956 9.4C36.9676 10.1573 37.3036 11.2133 37.3036 12.568ZM35.0476 11.928C35.0476 10.52 34.541 9.816 33.5276 9.816C33.0583 9.816 32.6903 9.992 32.4236 10.344C32.1676 10.6853 32.013 11.2453 31.9596 12.024H35.0476V11.928ZM43.9881 12.36C45.4281 12.52 46.1481 13.2027 46.1481 14.408C46.1481 15.2827 45.8121 15.9333 45.1401 16.36C44.4681 16.7867 43.5561 17 42.4041 17H38.9481V8.616C40.1428 8.38133 41.2148 8.264 42.1641 8.264C43.2841 8.264 44.1641 8.46133 44.8041 8.856C45.4441 9.24 45.7641 9.81067 45.7641 10.568C45.7641 11.048 45.6095 11.4427 45.3001 11.752C45.0015 12.0507 44.5641 12.2533 43.9881 12.36ZM42.1321 9.768C41.8441 9.768 41.5401 9.784 41.2201 9.816V11.864H42.2761C42.6601 11.864 42.9588 11.7787 43.1721 11.608C43.3961 11.4373 43.5081 11.1707 43.5081 10.808C43.5081 10.456 43.3908 10.1947 43.1561 10.024C42.9321 9.85333 42.5908 9.768 42.1321 9.768ZM42.3561 15.464C43.3268 15.464 43.8121 15.0587 43.8121 14.248C43.8121 13.8747 43.6948 13.5973 43.4601 13.416C43.2361 13.2347 42.8735 13.144 42.3721 13.144H41.2201V15.464H42.3561ZM54.1938 14.648C54.1938 14.9787 54.2418 15.224 54.3378 15.384C54.4338 15.5333 54.5938 15.6453 54.8177 15.72L54.3378 17.224C53.8364 17.1813 53.4258 17.064 53.1058 16.872C52.7964 16.68 52.5564 16.3813 52.3858 15.976C51.8311 16.8293 50.9831 17.256 49.8418 17.256C48.9991 17.256 48.3271 17.016 47.8258 16.536C47.3351 16.0453 47.0898 15.4107 47.0898 14.632C47.0898 13.704 47.4258 12.9947 48.0978 12.504C48.7698 12.0133 49.7351 11.768 50.9938 11.768H51.9698V11.352C51.9698 10.8293 51.8524 10.4667 51.6178 10.264C51.3831 10.0613 50.9938 9.96 50.4498 9.96C49.8524 9.96 49.1058 10.1093 48.2098 10.408L47.6978 8.888C48.7538 8.472 49.7991 8.264 50.8338 8.264C51.9858 8.264 52.8338 8.51467 53.3778 9.016C53.9218 9.50667 54.1938 10.2427 54.1938 11.224V14.648ZM50.4658 15.624C51.1058 15.624 51.6071 15.3093 51.9698 14.68V13.064H51.2178C49.9911 13.064 49.3778 13.5227 49.3778 14.44C49.3778 14.8133 49.4684 15.1067 49.6498 15.32C49.8418 15.5227 50.1138 15.624 50.4658 15.624ZM58.7358 17H56.4638V8.52H62.2878L62.0158 10.264H58.7358V17ZM70.618 17H68.442V13.784C68.442 13.176 68.474 12.6 68.538 12.056C68.602 11.512 68.6713 11.08 68.746 10.76L65.738 17H63.37V8.52H65.546V11.768C65.546 12.344 65.514 12.9147 65.45 13.48C65.3967 14.0347 65.3327 14.4613 65.258 14.76L68.218 8.52H70.618V17Z"/></svg>