<svg width="60" height="26" viewBox="0 0 60 26" xmlns="http://www.w3.org/2000/svg" fill="currentColor" id="icon-link-one"><path d="M9.2 6.976V18H7.68V8.272H3.12V18H1.6V6.976H9.2ZM16.1889 9.376C17.2662 9.376 18.0555 9.76 18.5569 10.528C19.0582 11.296 19.3089 12.3787 19.3089 13.776C19.3089 15.0987 19.0209 16.1653 18.4449 16.976C17.8689 17.7867 17.0529 18.192 15.9969 18.192C15.0582 18.192 14.3222 17.872 13.7889 17.232V21.232L12.3169 21.408V9.568H13.5809L13.6929 10.704C14.0022 10.2773 14.3755 9.952 14.8129 9.728C15.2502 9.49333 15.7089 9.376 16.1889 9.376ZM15.6449 16.992C17.0315 16.992 17.7249 15.92 17.7249 13.776C17.7249 11.6213 17.0902 10.544 15.8209 10.544C15.4049 10.544 15.0262 10.6667 14.6849 10.912C14.3435 11.1573 14.0449 11.472 13.7889 11.856V15.968C14.0022 16.2987 14.2689 16.5547 14.5889 16.736C14.9089 16.9067 15.2609 16.992 15.6449 16.992ZM24.9849 9.376C26.1689 9.376 27.0862 9.77067 27.7369 10.56C28.3982 11.3493 28.7289 12.4213 28.7289 13.776C28.7289 14.6507 28.5795 15.424 28.2809 16.096C27.9822 16.7573 27.5502 17.2747 26.9849 17.648C26.4195 18.0107 25.7475 18.192 24.9689 18.192C23.7849 18.192 22.8622 17.7973 22.2009 17.008C21.5395 16.2187 21.2089 15.1467 21.2089 13.792C21.2089 12.9173 21.3582 12.1493 21.6569 11.488C21.9555 10.816 22.3875 10.2987 22.9529 9.936C23.5182 9.56267 24.1955 9.376 24.9849 9.376ZM24.9849 10.56C23.5235 10.56 22.7929 11.6373 22.7929 13.792C22.7929 15.936 23.5182 17.008 24.9689 17.008C26.4195 17.008 27.1449 15.9307 27.1449 13.776C27.1449 11.632 26.4249 10.56 24.9849 10.56ZM40.371 18V14.288H36.867V18H35.395V9.568H36.867V13.104H40.371V9.568H41.843V18H40.371ZM50.5594 16.032C50.5594 16.3733 50.618 16.6293 50.7354 16.8C50.8527 16.96 51.0287 17.0827 51.2634 17.168L50.9274 18.192C50.49 18.1387 50.138 18.016 49.8714 17.824C49.6047 17.632 49.4074 17.3333 49.2794 16.928C48.714 17.7707 47.8767 18.192 46.7674 18.192C45.9354 18.192 45.2794 17.9573 44.7994 17.488C44.3194 17.0187 44.0794 16.4053 44.0794 15.648C44.0794 14.752 44.3994 14.064 45.0394 13.584C45.69 13.104 46.6074 12.864 47.7914 12.864H49.0874V12.24C49.0874 11.6427 48.9434 11.216 48.6554 10.96C48.3674 10.704 47.9247 10.576 47.3274 10.576C46.7087 10.576 45.9514 10.7253 45.0554 11.024L44.6874 9.952C45.7327 9.568 46.7034 9.376 47.5994 9.376C48.5914 9.376 49.3327 9.62133 49.8234 10.112C50.314 10.592 50.5594 11.28 50.5594 12.176V16.032ZM47.1034 17.088C47.946 17.088 48.6074 16.6507 49.0874 15.776V13.84H47.9834C46.426 13.84 45.6474 14.416 45.6474 15.568C45.6474 16.0693 45.77 16.448 46.0154 16.704C46.2607 16.96 46.6234 17.088 47.1034 17.088ZM56.6545 9.376C57.1558 9.376 57.6145 9.45067 58.0305 9.6C58.4465 9.73867 58.8465 9.968 59.2305 10.288L58.5265 11.216C58.2278 11.0027 57.9345 10.848 57.6465 10.752C57.3692 10.6453 57.0598 10.592 56.7185 10.592C56.0358 10.592 55.5025 10.864 55.1185 11.408C54.7452 11.952 54.5585 12.7573 54.5585 13.824C54.5585 14.8907 54.7452 15.68 55.1185 16.192C55.4918 16.6933 56.0252 16.944 56.7185 16.944C57.0492 16.944 57.3532 16.896 57.6305 16.8C57.9078 16.6933 58.2172 16.528 58.5585 16.304L59.2305 17.264C58.4625 17.8827 57.6038 18.192 56.6545 18.192C55.5132 18.192 54.6118 17.808 53.9505 17.04C53.2998 16.272 52.9745 15.2107 52.9745 13.856C52.9745 12.96 53.1238 12.176 53.4225 11.504C53.7212 10.832 54.1425 10.3093 54.6865 9.936C55.2412 9.56267 55.8972 9.376 56.6545 9.376Z"/></svg>