<svg width="81" height="31" viewBox="0 0 81 30" xmlns="http://www.w3.org/2000/svg" fill="currentColor" id="icon-logo"><path d="M13.1629 2.09967e-05C13.0028 0.00015209 12.8339 0.000290295 12.6756 0.0191782C10.8355 0.172676 9.14452 0.954351 7.9403 2.37838C6.62981 3.9281 6.31289 5.56087 6.32824 7.53378L2.8225 7.52842C2.66547 7.52828 2.50314 7.52379 2.33852 7.51923C1.88113 7.50657 1.40604 7.49341 0.97757 7.57191C0.719175 7.61928 0.493704 7.74495 0.311985 7.93411C-0.00616872 8.26532 -0.0138996 8.68367 0.00677402 9.11226C0.0393812 9.78803 0.0974199 10.4647 0.155392 11.1406C0.186929 11.5082 0.218473 11.876 0.245881 12.2432L0.827754 19.7617L1.11087 23.3925C1.12481 23.5717 1.13595 23.7527 1.14714 23.9345C1.18712 24.5843 1.22769 25.2436 1.39923 25.8652C1.69558 26.9222 2.28292 27.8746 3.09431 28.6143C3.80343 29.2582 4.66054 29.7176 5.58966 29.9513C6.37553 30.141 7.28853 30.1195 8.14613 30.0994C8.40139 30.0934 8.65173 30.0875 8.89236 30.0873L13.6119 30.0859L17.7338 30.0877C17.959 30.0877 18.1908 30.0932 18.4254 30.0988C19.1868 30.1169 19.9803 30.1358 20.6918 29.9699C21.6926 29.737 22.7055 29.1875 23.4362 28.463C24.1161 27.7885 24.6594 26.8879 24.8968 25.9575C25.0784 25.2456 25.124 24.4648 25.1682 23.7075C25.1825 23.4633 25.1966 23.2214 25.2151 22.9852L25.6019 18.0057L26.0843 11.8916C26.1076 11.5896 26.1378 11.2844 26.1681 10.9785C26.2337 10.3156 26.2998 9.64761 26.2983 8.99245C26.2976 8.58945 26.2123 8.21351 25.9235 7.91424C25.7248 7.70802 25.3999 7.60732 25.125 7.56247C24.7129 7.49528 24.2611 7.50727 23.824 7.51886C23.6623 7.52315 23.5027 7.52738 23.3479 7.52754C22.2454 7.52539 21.1424 7.52929 20.0399 7.53917L19.9925 7.53986C20.0184 5.42706 19.548 3.61406 18.0291 2.06884C16.7599 0.753782 15.0134 0.00765668 13.186 0L13.1629 2.09967e-05ZM19.8448 12.0514L19.9042 12.0549C19.9058 12.0589 19.9073 12.0627 19.9087 12.0661C19.9094 12.068 19.9102 12.0697 19.9109 12.0714C19.9134 12.0777 19.9158 12.0832 19.9179 12.0879L19.9203 12.0936C19.9312 12.1183 19.9332 12.1228 19.9327 12.1626C19.9137 14.7533 19.2202 18.0888 17.3815 19.9862C15.6788 21.7432 13.0347 22.6054 10.6235 22.6532C11.7466 20.5408 13.5514 18.5374 15.413 17.0496C15.7009 16.8197 16.0023 16.6118 16.3039 16.4039C16.4981 16.27 16.6923 16.1361 16.8831 15.9961C17.0683 15.8602 17.3177 15.6758 17.344 15.4279C17.368 15.1996 17.2466 15.0225 17.1037 14.8594C16.9035 14.7434 16.757 14.695 16.5284 14.762C16.2038 14.8573 15.8768 15.0974 15.5816 15.3141C15.5034 15.3715 15.4274 15.4274 15.3543 15.4783C12.9673 17.1687 10.9838 19.366 9.54598 21.913C9.49749 19.8408 9.96936 18.105 11.2402 16.4381C13.1474 13.9367 16.7978 12.4666 19.8448 12.0514ZM1.31457 8.82615L24.9974 8.82578C24.9133 9.62341 24.8589 10.4283 24.8045 11.232C24.7743 11.6797 24.744 12.1274 24.7086 12.5731L24.0709 20.5641L23.8325 23.5088C23.8219 23.6367 23.8122 23.7651 23.8025 23.8939C23.7642 24.402 23.7256 24.9146 23.6276 25.412C23.5269 25.9225 23.3315 26.3662 23.0668 26.8114C22.9647 26.9663 22.8539 27.1155 22.735 27.258C22.0485 28.0784 20.9215 28.6894 19.851 28.7704C19.2681 28.8144 18.6683 28.8034 18.0742 28.7925C17.8171 28.7877 17.5609 28.783 17.3075 28.7828L12.3941 28.7813L8.48425 28.7831C8.29567 28.7832 8.10373 28.7872 7.91036 28.7912C7.31738 28.8035 6.71023 28.816 6.14032 28.7179C5.39281 28.5874 4.69423 28.2581 4.11819 27.7644C3.42818 27.1825 2.93297 26.4034 2.69933 25.5316C2.5395 24.9538 2.49965 24.3381 2.46052 23.7336C2.45069 23.5817 2.4409 23.4306 2.42927 23.2809L2.19673 20.2847L1.31457 8.82615ZM20.3707 10.663L20.3531 10.6648C16.7581 11.0807 12.6654 12.5594 10.3417 15.4715C8.8481 17.3431 8.03212 19.7775 8.30163 22.1748C8.36081 22.7012 8.48003 23.2043 8.65187 23.7049C8.63243 23.7547 8.60871 23.8143 8.58172 23.8821C8.28668 24.6236 7.60091 26.3472 7.83942 26.8569C7.90841 27.0042 8.04893 27.1031 8.20129 27.1515C8.26408 27.1712 8.3273 27.1825 8.39264 27.1902C8.59404 27.157 8.78021 27.1154 8.90144 26.9353C9.03162 26.7415 9.16492 26.276 9.27894 25.8779C9.33326 25.6882 9.38321 25.5138 9.4264 25.3912C9.5741 24.9717 9.74181 24.559 9.9093 24.1469L9.91125 24.1421C9.93086 24.0938 9.95046 24.0456 9.97002 23.9974C12.9345 24.0061 16.1007 23.0782 18.2453 20.9622C20.6437 18.5953 21.2478 14.7787 21.2526 11.5488C21.2529 11.2942 21.2354 10.992 21.0491 10.7972C20.9346 10.6774 20.7622 10.6413 20.6021 10.6448C20.5249 10.6465 20.4476 10.6548 20.3707 10.663ZM12.8747 1.29533C12.9895 1.28822 13.1048 1.2818 13.2196 1.2826C14.6277 1.29249 16.0376 1.92227 17.0272 2.91464C18.3744 4.2659 18.65 5.69982 18.6529 7.53389L13.4938 7.53108L7.68838 7.5383C7.64397 5.96179 7.89788 4.52185 8.93215 3.27702C9.92574 2.08116 11.3438 1.43209 12.8747 1.29533Z"/><path d="M19.9043 12.0549L19.8448 12.0514C16.7978 12.4666 13.1474 13.9367 11.2403 16.4381C9.9694 18.1049 9.49753 19.8408 9.54602 21.913C10.9838 19.366 12.9673 17.1686 15.3544 15.4783C15.4275 15.4274 15.5035 15.3715 15.5817 15.3141C15.8768 15.0974 16.2039 14.8573 16.5284 14.762C16.757 14.695 16.9036 14.7434 17.1038 14.8594C17.2467 15.0225 17.3681 15.1996 17.344 15.4279C17.3178 15.6758 17.0684 15.8602 16.8832 15.9961C16.6924 16.136 16.4981 16.27 16.304 16.4039C16.0024 16.6118 15.701 16.8196 15.4131 17.0496C13.5514 18.5374 11.7466 20.5408 10.6235 22.6532C13.0348 22.6054 15.6789 21.7432 17.3816 19.9862C19.2203 18.0888 19.9138 14.7533 19.9327 12.1626C19.9332 12.1228 19.9313 12.1183 19.9204 12.0936C19.9178 12.0877 19.9146 12.0804 19.9109 12.0714C19.9089 12.0665 19.9067 12.061 19.9043 12.0549ZM20.3531 10.6648L20.3707 10.663C20.4477 10.6548 20.5249 10.6465 20.6021 10.6448C20.7622 10.6413 20.9347 10.6774 21.0491 10.7972C21.2354 10.992 21.253 11.2941 21.2526 11.5488C21.2478 14.7787 20.6437 18.5953 18.2453 20.9622C16.1007 23.0782 12.9345 24.0061 9.97006 23.9974C9.9505 24.0456 9.9309 24.0938 9.91129 24.1421L9.90933 24.1469C9.74184 24.559 9.57413 24.9717 9.42644 25.3912C9.38325 25.5138 9.3333 25.6882 9.27899 25.8779C9.16497 26.276 9.03166 26.7415 8.90148 26.9353C8.78025 27.1154 8.59408 27.157 8.39268 27.1902C8.32734 27.1825 8.26412 27.1712 8.20133 27.1515C8.04896 27.103 7.90845 27.0042 7.83946 26.8569C7.60095 26.3472 8.28672 24.6236 8.58176 23.8821C8.60875 23.8143 8.63247 23.7547 8.65191 23.7049C8.48007 23.2043 8.36084 22.7012 8.30167 22.1748C8.03216 19.7775 8.84814 17.3431 10.3417 15.4715C12.6654 12.5594 16.7581 11.0807 20.3531 10.6648Z"/><path d="M20.3708 10.663L20.3532 10.6648C16.7582 11.0807 12.6655 12.5594 10.3417 15.4715C8.84818 17.3431 8.0322 19.7775 8.30171 22.1748C8.36089 22.7012 8.48011 23.2043 8.65195 23.7049C8.63251 23.7547 8.60879 23.8143 8.5818 23.8821C8.28677 24.6236 7.60099 26.3472 7.8395 26.8569C7.90849 27.0042 8.04901 27.103 8.20138 27.1515C8.26416 27.1712 8.32738 27.1825 8.39272 27.1902C8.59413 27.157 8.78029 27.1154 8.90152 26.9353C9.0317 26.7415 9.16494 26.2763 9.27896 25.8781C9.3333 25.6884 9.38328 25.5139 9.42648 25.3912C9.57418 24.9716 9.74188 24.559 9.90938 24.1469C9.91003 24.1453 9.91068 24.1437 9.91133 24.1421C9.93094 24.0938 9.95054 24.0456 9.97011 23.9974C12.9346 24.0061 16.1008 23.0782 18.2454 20.9622C20.6437 18.5953 21.2479 14.7787 21.2526 11.5488C21.253 11.2941 21.2355 10.992 21.0492 10.7972C20.9347 10.6774 20.7622 10.6413 20.6022 10.6448C20.5249 10.6465 20.4477 10.6548 20.3708 10.663ZM19.8449 12.0514L19.9043 12.0549C19.9067 12.061 19.9089 12.0665 19.9109 12.0714C19.9147 12.0805 19.9178 12.0876 19.9204 12.0936C19.9313 12.1183 19.9333 12.1228 19.9328 12.1626C19.9138 14.7533 19.2203 18.0888 17.3816 19.9862C15.6789 21.7432 13.0348 22.6054 10.6235 22.6532C11.7467 20.5408 13.5515 18.5374 15.4131 17.0496C15.701 16.8196 16.0024 16.6118 16.304 16.4039C16.4982 16.27 16.6924 16.136 16.8832 15.9961C17.0684 15.8602 17.3178 15.6758 17.3441 15.4279C17.3681 15.1996 17.2467 15.0225 17.1038 14.8594C16.9036 14.7434 16.7571 14.695 16.5284 14.762C16.2039 14.8573 15.8769 15.0974 15.5817 15.3141C15.5035 15.3715 15.4275 15.4274 15.3544 15.4783C12.9674 17.1686 10.9839 19.366 9.54606 21.913C9.49757 19.8408 9.96944 18.1049 11.2403 16.4381C13.1475 13.9367 16.7979 12.4666 19.8449 12.0514Z"/><path d="M66.6602 19.4424C66.5703 16.8959 64.4334 14.9047 61.8874 14.9942C59.3406 15.0833 57.3486 17.2209 57.4385 19.7674C57.5284 22.3142 59.666 24.3058 62.2124 24.2159C64.7589 24.1256 66.7501 21.9884 66.6602 19.4424ZM62.0477 16.3785C62.7905 16.4086 63.3925 16.5872 63.9587 17.0887C64.6336 17.6859 65.0099 18.5487 65.0591 19.4424C65.1087 20.3369 64.8272 21.2436 64.2183 21.9099C63.6618 22.5188 62.9678 22.7914 62.1547 22.832C61.4127 22.8243 60.8005 22.7088 60.2152 22.2219C59.5314 21.6532 59.1449 20.8112 59.0721 19.9325C58.9969 19.0189 59.236 18.0744 59.8426 17.3735C60.4442 16.6787 61.1548 16.4395 62.0477 16.3785Z"/><path d="M53.8375 19.0604C53.534 16.5282 51.2331 14.7233 48.7017 15.0316C46.1771 15.3391 44.378 17.6326 44.6807 20.1578C44.9834 22.6831 47.2735 24.4864 49.7993 24.1886C52.3318 23.8896 54.141 21.5921 53.8375 19.0604ZM48.8494 16.4159C49.5881 16.3557 50.2573 16.4334 50.8811 16.8625C51.5815 17.3442 52.022 18.0882 52.1676 18.9192C52.3329 19.8629 52.1775 20.8721 51.6097 21.6584C51.1127 22.3471 50.4916 22.6888 49.6642 22.8206C48.9084 22.8593 48.2407 22.8133 47.6042 22.363C46.9177 21.8793 46.4551 21.1394 46.3211 20.3104C46.1668 19.3959 46.3516 18.3436 46.8975 17.5829C47.3772 16.9146 48.047 16.544 48.8494 16.4159Z"/><path d="M76.3325 14.9885C76.3097 14.9893 76.2874 14.9909 76.2646 14.9938C75.1032 15.1309 74.0574 15.693 73.3272 16.6148C72.4942 17.6671 72.2082 19.0014 72.3725 20.321C72.5072 21.4799 73.1003 22.5367 74.0192 23.2563C75.1077 24.102 76.4879 24.3168 77.8327 24.1329C78.6109 24.0263 79.7804 23.6537 80.2779 23.0061C80.4178 22.8243 80.4882 22.6022 80.456 22.3728C80.4333 22.2117 80.3625 22.0575 80.2299 21.9587C80.0773 21.8452 79.8739 21.8309 79.6929 21.8663C79.4413 21.9154 79.2157 22.071 79.0018 22.2185C78.9567 22.2496 78.9122 22.2804 78.868 22.3097C77.9287 22.7978 76.887 23.0273 75.8538 22.6925C75.1187 22.4505 74.5114 21.9229 74.1697 21.2281C73.9915 20.873 73.9028 20.4959 73.8239 20.109H78.2566C78.441 20.1093 78.639 20.1156 78.8425 20.1221C79.368 20.139 79.9308 20.157 80.3946 20.0741C80.5268 20.0505 80.6529 19.9797 80.7489 19.8861C80.967 19.6738 81.0056 19.3732 80.9991 19.0831C80.9743 17.9726 80.4528 16.8772 79.6449 16.1259C78.7122 15.2582 77.587 14.932 76.3325 14.9885ZM76.4692 16.376C77.142 16.2971 77.8205 16.4688 78.375 16.8589C79.0376 17.3299 79.3858 17.9987 79.5253 18.7858C78.9634 18.7926 78.4007 18.791 77.8383 18.7895C77.5572 18.7887 77.276 18.788 76.9952 18.7882L73.8776 18.7923C74.0204 18.3127 74.186 17.877 74.4927 17.4751C74.9869 16.828 75.6711 16.481 76.4692 16.376Z"/><path d="M51.6448 11.6921C53.3086 11.6526 54.9813 11.6892 56.6463 11.6864C57.5945 11.6847 58.8059 11.6078 59.7264 11.7026C59.8745 11.7181 59.9924 11.76 60.1051 11.8584C60.2654 11.9984 60.372 12.2095 60.3776 12.4234C60.3825 12.6167 60.2642 12.8384 60.1246 12.9681C60.0181 13.0666 59.8911 13.106 59.7508 13.1288C59.3676 13.1906 58.9446 13.1544 58.5557 13.154L56.4901 13.1504L56.4892 20.8165C56.4921 21.4625 56.5739 22.8716 56.4766 23.4211C56.4461 23.5936 56.3835 23.7657 56.2647 23.8979C56.137 24.0398 55.9608 24.1114 55.7713 24.1155C55.5728 24.12 55.3791 24.0764 55.236 23.932C55.0675 23.7632 55.0057 23.5147 54.985 23.284C54.9467 22.8585 54.9817 22.4082 54.9866 21.9807C54.9939 21.3482 54.9882 20.7152 54.9878 20.0827L54.9927 13.1491C54.3057 13.1524 51.9277 13.2618 51.4407 13.0409C51.2629 12.9604 51.1512 12.8359 51.0867 12.6508C51.0179 12.454 51.0492 12.2441 51.1487 12.0634C51.2651 11.8519 51.4205 11.7612 51.6448 11.6921Z"/><path d="M40.7619 14.9946C41.3799 14.9596 41.9837 14.9991 42.5838 15.1598C43.2174 15.3294 44.1865 15.7032 44.5141 16.3045C44.6041 16.47 44.6511 16.6681 44.5876 16.8512C44.5226 17.0379 44.3453 17.1807 44.1666 17.2539C43.6454 17.4674 42.993 16.7495 42.5028 16.5648C41.7055 16.2642 40.7467 16.2809 39.9711 16.6429C39.2585 16.9756 38.7462 17.6057 38.4809 18.3375C38.173 19.1869 38.147 20.2946 38.5379 21.1224C38.9004 21.8895 39.5673 22.4257 40.3583 22.7051C41.2636 23.0253 42.2067 22.8548 43.0527 22.4493C43.3148 22.3073 43.5529 22.1181 43.8516 22.0563C44.0059 22.0246 44.1583 22.0413 44.2899 22.1324C44.4518 22.2447 44.5828 22.4668 44.6043 22.6628C44.6245 22.8467 44.553 23.0159 44.4389 23.1571C43.944 23.7705 42.8424 24.0788 42.0926 24.1708C40.7915 24.3302 39.4362 24.0695 38.3949 23.2392C37.416 22.4741 36.7932 21.3416 36.6714 20.1054C36.5424 18.8737 36.9036 17.6407 37.6768 16.6734C38.4606 15.7097 39.5301 15.1264 40.7619 14.9946Z"/><path d="M68.5523 12.6667C68.5784 12.6655 68.604 12.6642 68.6296 12.6634C68.8603 12.6561 69.0921 12.7179 69.2552 12.888C69.6441 13.2943 69.4895 14.6636 69.4851 15.2241C70.0147 15.2273 71.3034 15.0626 71.7004 15.4157C71.844 15.5438 71.9026 15.7212 71.903 15.9103C71.9038 16.0938 71.8562 16.2695 71.7199 16.3989C71.3489 16.7503 70.0094 16.612 69.4843 16.6088C69.4891 17.7347 69.337 21.2054 69.684 22.0596C70.2449 23.441 71.4608 22.226 72.1544 22.5526C72.3028 22.6226 72.4245 22.7703 72.4794 22.924C72.5575 23.1429 72.4879 23.3385 72.398 23.5395C72.3826 23.5566 72.3671 23.5732 72.3516 23.5899C71.9327 24.0264 71.1455 24.1313 70.5675 24.1395C69.8967 24.1492 69.2626 24.0353 68.7671 23.5391C68.4091 23.1803 68.1866 22.6881 68.0776 22.1983C67.9092 21.4417 67.9788 20.6042 67.9792 19.8325L67.9812 16.61C67.5744 16.6096 67.1672 16.6067 66.7605 16.6002C66.6933 16.5583 66.6279 16.5152 66.5689 16.4619C66.4082 16.3171 66.335 16.1011 66.3293 15.8884C66.3244 15.7102 66.3789 15.5345 66.5119 15.4112C66.8406 15.1069 67.5634 15.216 67.9812 15.2233C67.98 14.6371 67.8514 13.586 68.0727 13.0702C68.1712 12.8412 68.3319 12.7582 68.5523 12.6667Z"/><path fill-rule="evenodd" clip-rule="evenodd" d="M36.2793 12.4471C35.5784 12.3783 32.1478 12.4027 30.9576 12.4202C30.7388 12.4234 30.5358 12.4383 30.3576 12.4514C30.2059 12.4626 30.0722 12.4725 29.9618 12.4726C29.9618 12.4726 29.4881 12.5838 29.3345 12.7971C29.2341 12.9369 29.1998 13.1141 29.1758 13.281C29.0487 14.1672 28.9743 15.0714 28.9001 15.9726C28.8611 16.4469 28.8221 16.9204 28.7756 17.39L28.3242 21.9455C28.3122 22.0673 28.2914 22.2335 28.2677 22.4223C28.1913 23.0325 28.0854 23.8777 28.1539 24.2141C28.1918 24.4005 28.2906 24.5545 28.4555 24.6517C28.6181 24.7476 28.8025 24.8022 28.9876 24.8336L28.9893 24.8336C29.3721 24.8328 29.9492 24.8388 30.5941 24.8454C31.9312 24.8593 35.3311 24.8761 36.1217 24.8421C36.2793 24.8352 36.4464 24.8218 36.595 24.7656C36.7945 24.69 36.9586 24.5456 37.0375 24.3446C37.117 24.1425 37.0993 23.9159 37.0092 23.7206C36.9186 23.5237 36.7962 23.4188 36.5908 23.3529H29.7572C29.8712 22.3468 29.9732 21.3395 30.063 20.331L30.1437 19.5112L30.1515 19.4299C30.2049 19.4306 30.2752 19.4317 30.3588 19.4329C31.0548 19.4434 34.4424 19.4678 34.8741 19.4035C35.0325 19.3799 35.1804 19.34 35.2963 19.2233C35.4463 19.0719 35.5087 18.8629 35.4963 18.653C35.4858 18.4748 35.4069 18.2808 35.2715 18.1608C35.1811 18.081 35.0691 18.0294 34.9495 18.0127C34.5461 17.954 31.5343 17.9699 30.774 17.9797C30.5701 17.9823 30.4006 17.9845 30.2911 17.9846L30.6375 13.8977H34.3253C34.5133 13.8978 34.7092 13.9041 34.908 13.9105C35.3893 13.9259 35.8881 13.9419 36.3357 13.8725C36.4949 13.8481 36.6314 13.7936 36.7469 13.6777C36.8883 13.5357 36.9657 13.3209 36.9548 13.1216C36.9437 12.9182 36.8343 12.7246 36.6752 12.5997C36.554 12.5045 36.4312 12.4618 36.2793 12.4471Z"/></svg>