<svg aria-hidden="true" style="position: absolute; width: 0; height: 0; overflow: hidden;" version="1.1" xmlns="http://www.w3.org/2000/svg" xmlns:xlink="http://www.w3.org/1999/xlink">
  <defs>
    <symbol id="icon-link-one-61938" viewBox="0 0 60 26">
      <path d="M9.2 6.976V18H7.68V8.272H3.12V18H1.6V6.976H9.2ZM16.1889 9.376C17.2662 9.376 18.0555 9.76 18.5569 10.528C19.0582 11.296 19.3089 12.3787 19.3089 13.776C19.3089 15.0987 19.0209 16.1653 18.4449 16.976C17.8689 17.7867 17.0529 18.192 15.9969 18.192C15.0582 18.192 14.3222 17.872 13.7889 17.232V21.232L12.3169 21.408V9.568H13.5809L13.6929 10.704C14.0022 10.2773 14.3755 9.952 14.8129 9.728C15.2502 9.49333 15.7089 9.376 16.1889 9.376ZM15.6449 16.992C17.0315 16.992 17.7249 15.92 17.7249 13.776C17.7249 11.6213 17.0902 10.544 15.8209 10.544C15.4049 10.544 15.0262 10.6667 14.6849 10.912C14.3435 11.1573 14.0449 11.472 13.7889 11.856V15.968C14.0022 16.2987 14.2689 16.5547 14.5889 16.736C14.9089 16.9067 15.2609 16.992 15.6449 16.992ZM24.9849 9.376C26.1689 9.376 27.0862 9.77067 27.7369 10.56C28.3982 11.3493 28.7289 12.4213 28.7289 13.776C28.7289 14.6507 28.5795 15.424 28.2809 16.096C27.9822 16.7573 27.5502 17.2747 26.9849 17.648C26.4195 18.0107 25.7475 18.192 24.9689 18.192C23.7849 18.192 22.8622 17.7973 22.2009 17.008C21.5395 16.2187 21.2089 15.1467 21.2089 13.792C21.2089 12.9173 21.3582 12.1493 21.6569 11.488C21.9555 10.816 22.3875 10.2987 22.9529 9.936C23.5182 9.56267 24.1955 9.376 24.9849 9.376ZM24.9849 10.56C23.5235 10.56 22.7929 11.6373 22.7929 13.792C22.7929 15.936 23.5182 17.008 24.9689 17.008C26.4195 17.008 27.1449 15.9307 27.1449 13.776C27.1449 11.632 26.4249 10.56 24.9849 10.56ZM40.371 18V14.288H36.867V18H35.395V9.568H36.867V13.104H40.371V9.568H41.843V18H40.371ZM50.5594 16.032C50.5594 16.3733 50.618 16.6293 50.7354 16.8C50.8527 16.96 51.0287 17.0827 51.2634 17.168L50.9274 18.192C50.49 18.1387 50.138 18.016 49.8714 17.824C49.6047 17.632 49.4074 17.3333 49.2794 16.928C48.714 17.7707 47.8767 18.192 46.7674 18.192C45.9354 18.192 45.2794 17.9573 44.7994 17.488C44.3194 17.0187 44.0794 16.4053 44.0794 15.648C44.0794 14.752 44.3994 14.064 45.0394 13.584C45.69 13.104 46.6074 12.864 47.7914 12.864H49.0874V12.24C49.0874 11.6427 48.9434 11.216 48.6554 10.96C48.3674 10.704 47.9247 10.576 47.3274 10.576C46.7087 10.576 45.9514 10.7253 45.0554 11.024L44.6874 9.952C45.7327 9.568 46.7034 9.376 47.5994 9.376C48.5914 9.376 49.3327 9.62133 49.8234 10.112C50.314 10.592 50.5594 11.28 50.5594 12.176V16.032ZM47.1034 17.088C47.946 17.088 48.6074 16.6507 49.0874 15.776V13.84H47.9834C46.426 13.84 45.6474 14.416 45.6474 15.568C45.6474 16.0693 45.77 16.448 46.0154 16.704C46.2607 16.96 46.6234 17.088 47.1034 17.088ZM56.6545 9.376C57.1558 9.376 57.6145 9.45067 58.0305 9.6C58.4465 9.73867 58.8465 9.968 59.2305 10.288L58.5265 11.216C58.2278 11.0027 57.9345 10.848 57.6465 10.752C57.3692 10.6453 57.0598 10.592 56.7185 10.592C56.0358 10.592 55.5025 10.864 55.1185 11.408C54.7452 11.952 54.5585 12.7573 54.5585 13.824C54.5585 14.8907 54.7452 15.68 55.1185 16.192C55.4918 16.6933 56.0252 16.944 56.7185 16.944C57.0492 16.944 57.3532 16.896 57.6305 16.8C57.9078 16.6933 58.2172 16.528 58.5585 16.304L59.2305 17.264C58.4625 17.8827 57.6038 18.192 56.6545 18.192C55.5132 18.192 54.6118 17.808 53.9505 17.04C53.2998 16.272 52.9745 15.2107 52.9745 13.856C52.9745 12.96 53.1238 12.176 53.4225 11.504C53.7212 10.832 54.1425 10.3093 54.6865 9.936C55.2412 9.56267 55.8972 9.376 56.6545 9.376Z"/>
    </symbol>
    <symbol id="icon-link-two-61940" viewBox="0 0 72 26">
      <path d="M9.2 6.976V18H7.68V8.272H3.12V18H1.6V6.976H9.2ZM18.6849 13.536C18.6849 13.7813 18.6742 14.032 18.6529 14.288H13.2769C13.3409 15.216 13.5755 15.8987 13.9809 16.336C14.3862 16.7733 14.9089 16.992 15.5489 16.992C15.9542 16.992 16.3275 16.9333 16.6689 16.816C17.0102 16.6987 17.3675 16.512 17.7409 16.256L18.3809 17.136C17.4849 17.84 16.5035 18.192 15.4369 18.192C14.2635 18.192 13.3462 17.808 12.6849 17.04C12.0342 16.272 11.7089 15.216 11.7089 13.872C11.7089 12.9973 11.8475 12.224 12.1249 11.552C12.4129 10.8693 12.8182 10.336 13.3409 9.952C13.8742 9.568 14.4982 9.376 15.2129 9.376C16.3329 9.376 17.1915 9.744 17.7889 10.48C18.3862 11.216 18.6849 12.2347 18.6849 13.536ZM17.2289 13.104C17.2289 12.272 17.0635 11.6373 16.7329 11.2C16.4022 10.7627 15.9062 10.544 15.2449 10.544C14.0395 10.544 13.3835 11.4293 13.2769 13.2H17.2289V13.104ZM24.9076 9.376C25.985 9.376 26.7743 9.76 27.2756 10.528C27.777 11.296 28.0276 12.3787 28.0276 13.776C28.0276 15.0987 27.7396 16.1653 27.1636 16.976C26.5876 17.7867 25.7716 18.192 24.7156 18.192C23.777 18.192 23.041 17.872 22.5076 17.232V21.232L21.0356 21.408V9.568H22.2996L22.4116 10.704C22.721 10.2773 23.0943 9.952 23.5316 9.728C23.969 9.49333 24.4276 9.376 24.9076 9.376ZM24.3636 16.992C25.7503 16.992 26.4436 15.92 26.4436 13.776C26.4436 11.6213 25.809 10.544 24.5396 10.544C24.1236 10.544 23.745 10.6667 23.4036 10.912C23.0623 11.1573 22.7636 11.472 22.5076 11.856V15.968C22.721 16.2987 22.9876 16.5547 23.3076 16.736C23.6276 16.9067 23.9796 16.992 24.3636 16.992ZM36.9036 13.536C36.9036 13.7813 36.893 14.032 36.8716 14.288H31.4956C31.5596 15.216 31.7943 15.8987 32.1996 16.336C32.605 16.7733 33.1276 16.992 33.7676 16.992C34.173 16.992 34.5463 16.9333 34.8876 16.816C35.229 16.6987 35.5863 16.512 35.9596 16.256L36.5996 17.136C35.7036 17.84 34.7223 18.192 33.6556 18.192C32.4823 18.192 31.565 17.808 30.9036 17.04C30.253 16.272 29.9276 15.216 29.9276 13.872C29.9276 12.9973 30.0663 12.224 30.3436 11.552C30.6316 10.8693 31.037 10.336 31.5596 9.952C32.093 9.568 32.717 9.376 33.4316 9.376C34.5516 9.376 35.4103 9.744 36.0076 10.48C36.605 11.216 36.9036 12.2347 36.9036 13.536ZM35.4476 13.104C35.4476 12.272 35.2823 11.6373 34.9516 11.2C34.621 10.7627 34.125 10.544 33.4636 10.544C32.2583 10.544 31.6023 11.4293 31.4956 13.2H35.4476V13.104ZM43.7024 13.424C45.1317 13.5627 45.8464 14.224 45.8464 15.408C45.8464 16.2933 45.521 16.9493 44.8704 17.376C44.2304 17.792 43.3717 18 42.2944 18H39.2544V9.68C40.2464 9.47733 41.169 9.376 42.0224 9.376C43.0677 9.376 43.8944 9.57333 44.5024 9.968C45.1104 10.3627 45.4144 10.928 45.4144 11.664C45.4144 12.144 45.2704 12.5333 44.9824 12.832C44.6944 13.1307 44.2677 13.328 43.7024 13.424ZM42.0384 10.512C41.5904 10.512 41.153 10.544 40.7264 10.608V12.992H42.3104C42.8224 12.992 43.217 12.896 43.4944 12.704C43.7717 12.512 43.9104 12.1867 43.9104 11.728C43.9104 11.3013 43.7557 10.992 43.4464 10.8C43.137 10.608 42.6677 10.512 42.0384 10.512ZM42.2944 16.848C42.9237 16.848 43.4144 16.7413 43.7664 16.528C44.1184 16.3147 44.2944 15.9307 44.2944 15.376C44.2944 14.9173 44.145 14.5867 43.8464 14.384C43.5477 14.1813 43.041 14.08 42.3264 14.08H40.7264V16.848H42.2944ZM53.8094 16.032C53.8094 16.3733 53.868 16.6293 53.9854 16.8C54.1027 16.96 54.2787 17.0827 54.5134 17.168L54.1774 18.192C53.74 18.1387 53.388 18.016 53.1214 17.824C52.8547 17.632 52.6574 17.3333 52.5294 16.928C51.964 17.7707 51.1267 18.192 50.0174 18.192C49.1854 18.192 48.5294 17.9573 48.0494 17.488C47.5694 17.0187 47.3294 16.4053 47.3294 15.648C47.3294 14.752 47.6494 14.064 48.2894 13.584C48.94 13.104 49.8574 12.864 51.0414 12.864H52.3374V12.24C52.3374 11.6427 52.1934 11.216 51.9054 10.96C51.6174 10.704 51.1747 10.576 50.5774 10.576C49.9587 10.576 49.2014 10.7253 48.3054 11.024L47.9374 9.952C48.9827 9.568 49.9534 9.376 50.8494 9.376C51.8414 9.376 52.5827 9.62133 53.0734 10.112C53.564 10.592 53.8094 11.28 53.8094 12.176V16.032ZM50.3534 17.088C51.196 17.088 51.8574 16.6507 52.3374 15.776V13.84H51.2334C49.676 13.84 48.8974 14.416 48.8974 15.568C48.8974 16.0693 49.02 16.448 49.2654 16.704C49.5107 16.96 49.8734 17.088 50.3534 17.088ZM58.3045 18H56.8325V9.568H62.0965L61.9045 10.784H58.3045V18ZM70.2519 18H68.7959V14.192C68.7959 13.552 68.8172 12.944 68.8599 12.368C68.9025 11.792 68.9399 11.4133 68.9719 11.232L65.4359 18H63.6919V9.568H65.1479V13.376C65.1479 13.9413 65.1265 14.528 65.0839 15.136C65.0412 15.7333 65.0092 16.1173 64.9879 16.288L68.4759 9.568H70.2519V18Z"/>
    </symbol>
    <symbol id="icon-link-three-61942" viewBox="0 0 88 26">
      <path d="M7.472 18L6.64 15.232H2.464L1.632 18H0.096L3.632 6.976H5.552L9.072 18H7.472ZM2.832 14H6.272L4.56 8.24L2.832 14ZM13.7639 9.376C14.2652 9.376 14.7239 9.45067 15.1399 9.6C15.5559 9.73867 15.9559 9.968 16.3399 10.288L15.6359 11.216C15.3372 11.0027 15.0439 10.848 14.7559 10.752C14.4785 10.6453 14.1692 10.592 13.8279 10.592C13.1452 10.592 12.6119 10.864 12.2279 11.408C11.8545 11.952 11.6679 12.7573 11.6679 13.824C11.6679 14.8907 11.8545 15.68 12.2279 16.192C12.6012 16.6933 13.1345 16.944 13.8279 16.944C14.1585 16.944 14.4625 16.896 14.7399 16.8C15.0172 16.6933 15.3265 16.528 15.6679 16.304L16.3399 17.264C15.5719 17.8827 14.7132 18.192 13.7639 18.192C12.6225 18.192 11.7212 17.808 11.0599 17.04C10.4092 16.272 10.0839 15.2107 10.0839 13.856C10.0839 12.96 10.2332 12.176 10.5319 11.504C10.8305 10.832 11.2519 10.3093 11.7959 9.936C12.3505 9.56267 13.0065 9.376 13.7639 9.376ZM21.188 9.376C22.372 9.376 23.2893 9.77067 23.94 10.56C24.6013 11.3493 24.932 12.4213 24.932 13.776C24.932 14.6507 24.7827 15.424 24.484 16.096C24.1853 16.7573 23.7533 17.2747 23.188 17.648C22.6227 18.0107 21.9507 18.192 21.172 18.192C19.988 18.192 19.0653 17.7973 18.404 17.008C17.7427 16.2187 17.412 15.1467 17.412 13.792C17.412 12.9173 17.5613 12.1493 17.86 11.488C18.1587 10.816 18.5907 10.2987 19.156 9.936C19.7213 9.56267 20.3987 9.376 21.188 9.376ZM21.188 10.56C19.7267 10.56 18.996 11.6373 18.996 13.792C18.996 15.936 19.7213 17.008 21.172 17.008C22.6227 17.008 23.348 15.9307 23.348 13.776C23.348 11.632 22.628 10.56 21.188 10.56ZM31.2358 9.376C32.3131 9.376 33.1024 9.76 33.6038 10.528C34.1051 11.296 34.3558 12.3787 34.3558 13.776C34.3558 15.0987 34.0678 16.1653 33.4918 16.976C32.9158 17.7867 32.0998 18.192 31.0438 18.192C30.1051 18.192 29.3691 17.872 28.8358 17.232V21.232L27.3638 21.408V9.568H28.6278L28.7398 10.704C29.0491 10.2773 29.4224 9.952 29.8598 9.728C30.2971 9.49333 30.7558 9.376 31.2358 9.376ZM30.6918 16.992C32.0784 16.992 32.7718 15.92 32.7718 13.776C32.7718 11.6213 32.1371 10.544 30.8678 10.544C30.4518 10.544 30.0731 10.6667 29.7318 10.912C29.3904 11.1573 29.0918 11.472 28.8358 11.856V15.968C29.0491 16.2987 29.3158 16.5547 29.6358 16.736C29.9558 16.9067 30.3078 16.992 30.6918 16.992ZM42.1535 9.568L41.9775 10.768H39.2735V18H37.8015V10.768H35.0175V9.568H42.1535ZM50.2362 18H48.7803V14.192C48.7803 13.552 48.8016 12.944 48.8443 12.368C48.8869 11.792 48.9243 11.4133 48.9563 11.232L45.4203 18H43.6763V9.568H45.1323V13.376C45.1323 13.9413 45.1109 14.528 45.0683 15.136C45.0256 15.7333 44.9936 16.1173 44.9723 16.288L48.4603 9.568H50.2362V18ZM61.526 18H60.086L59.702 14.016C59.6593 13.6 59.6327 13.1413 59.622 12.64C59.6113 12.128 59.606 11.5787 59.606 10.992L57.686 17.072H56.294L54.502 11.008C54.502 12.416 54.4807 13.4133 54.438 14L54.134 18H52.71L53.462 9.568H55.366L57.014 15.6L58.822 9.568H60.758L61.526 18ZM70.3724 13.536C70.3724 13.7813 70.3617 14.032 70.3404 14.288H64.9644C65.0284 15.216 65.263 15.8987 65.6684 16.336C66.0737 16.7733 66.5964 16.992 67.2364 16.992C67.6417 16.992 68.015 16.9333 68.3564 16.816C68.6977 16.6987 69.055 16.512 69.4284 16.256L70.0684 17.136C69.1724 17.84 68.191 18.192 67.1244 18.192C65.951 18.192 65.0337 17.808 64.3724 17.04C63.7217 16.272 63.3964 15.216 63.3964 13.872C63.3964 12.9973 63.535 12.224 63.8124 11.552C64.1004 10.8693 64.5057 10.336 65.0284 9.952C65.5617 9.568 66.1857 9.376 66.9004 9.376C68.0204 9.376 68.879 9.744 69.4764 10.48C70.0737 11.216 70.3724 12.2347 70.3724 13.536ZM68.9164 13.104C68.9164 12.272 68.751 11.6373 68.4204 11.2C68.0897 10.7627 67.5937 10.544 66.9324 10.544C65.727 10.544 65.071 11.4293 64.9644 13.2H68.9164V13.104ZM77.6991 18V14.288H74.1951V18H72.7231V9.568H74.1951V13.104H77.6991V9.568H79.1711V18H77.6991ZM87.9035 9.568L87.7275 10.768H85.0235V18H83.5515V10.768H80.7675V9.568H87.9035Z"/>
    </symbol>
    <symbol id="icon-nav-link-dropdown-61945" viewBox="0 0 61 26">
      <path d="M7.968 6.976L7.744 8.288H3.12V18H1.6V6.976H7.968ZM13.7313 16.032C13.7313 16.3733 13.7899 16.6293 13.9073 16.8C14.0246 16.96 14.2006 17.0827 14.4353 17.168L14.0993 18.192C13.6619 18.1387 13.3099 18.016 13.0433 17.824C12.7766 17.632 12.5793 17.3333 12.4513 16.928C11.8859 17.7707 11.0486 18.192 9.93925 18.192C9.10725 18.192 8.45125 17.9573 7.97125 17.488C7.49125 17.0187 7.25125 16.4053 7.25125 15.648C7.25125 14.752 7.57125 14.064 8.21125 13.584C8.86192 13.104 9.77925 12.864 10.9633 12.864H12.2593V12.24C12.2593 11.6427 12.1153 11.216 11.8273 10.96C11.5393 10.704 11.0966 10.576 10.4993 10.576C9.88058 10.576 9.12325 10.7253 8.22725 11.024L7.85925 9.952C8.90458 9.568 9.87525 9.376 10.7713 9.376C11.7633 9.376 12.5046 9.62133 12.9953 10.112C13.4859 10.592 13.7313 11.28 13.7313 12.176V16.032ZM10.2753 17.088C11.1179 17.088 11.7793 16.6507 12.2593 15.776V13.84H11.1553C9.59792 13.84 8.81925 14.416 8.81925 15.568C8.81925 16.0693 8.94192 16.448 9.18725 16.704C9.43258 16.96 9.79525 17.088 10.2753 17.088ZM22.9304 9.568V18H21.4584V10.768H18.8504L18.6104 13.584C18.5144 14.7253 18.3917 15.5787 18.2424 16.144C18.1037 16.7093 17.8797 17.1467 17.5704 17.456C17.2717 17.7547 16.813 18 16.1944 18.192L15.8264 17.024C16.189 16.896 16.445 16.7307 16.5944 16.528C16.7437 16.3253 16.8557 16.016 16.9304 15.6C17.005 15.184 17.085 14.4587 17.1704 13.424L17.5064 9.568H22.9304ZM32.3411 13.536C32.3411 13.7813 32.3305 14.032 32.3091 14.288H26.9331C26.9971 15.216 27.2318 15.8987 27.6371 16.336C28.0425 16.7733 28.5651 16.992 29.2051 16.992C29.6105 16.992 29.9838 16.9333 30.3251 16.816C30.6665 16.6987 31.0238 16.512 31.3971 16.256L32.0371 17.136C31.1411 17.84 30.1598 18.192 29.0931 18.192C27.9198 18.192 27.0025 17.808 26.3411 17.04C25.6905 16.272 25.3651 15.216 25.3651 13.872C25.3651 12.9973 25.5038 12.224 25.7811 11.552C26.0691 10.8693 26.4745 10.336 26.9971 9.952C27.5305 9.568 28.1545 9.376 28.8691 9.376C29.9891 9.376 30.8478 9.744 31.4451 10.48C32.0425 11.216 32.3411 12.2347 32.3411 13.536ZM30.8851 13.104C30.8851 12.272 30.7198 11.6373 30.3891 11.2C30.0585 10.7627 29.5625 10.544 28.9011 10.544C27.6958 10.544 27.0398 11.4293 26.9331 13.2H30.8851V13.104ZM38.5639 9.376C39.6412 9.376 40.4305 9.76 40.9319 10.528C41.4332 11.296 41.6839 12.3787 41.6839 13.776C41.6839 15.0987 41.3959 16.1653 40.8199 16.976C40.2439 17.7867 39.4279 18.192 38.3719 18.192C37.4332 18.192 36.6972 17.872 36.1639 17.232V21.232L34.6919 21.408V9.568H35.9559L36.0679 10.704C36.3772 10.2773 36.7505 9.952 37.1879 9.728C37.6252 9.49333 38.0839 9.376 38.5639 9.376ZM38.0199 16.992C39.4065 16.992 40.0999 15.92 40.0999 13.776C40.0999 11.6213 39.4652 10.544 38.1959 10.544C37.7799 10.544 37.4012 10.6667 37.0599 10.912C36.7185 11.1573 36.4199 11.472 36.1639 11.856V15.968C36.3772 16.2987 36.6439 16.5547 36.9639 16.736C37.2839 16.9067 37.6359 16.992 38.0199 16.992ZM50.5599 13.536C50.5599 13.7813 50.5492 14.032 50.5279 14.288H45.1519C45.2159 15.216 45.4505 15.8987 45.8559 16.336C46.2612 16.7733 46.7839 16.992 47.4239 16.992C47.8292 16.992 48.2025 16.9333 48.5439 16.816C48.8852 16.6987 49.2425 16.512 49.6159 16.256L50.2559 17.136C49.3599 17.84 48.3785 18.192 47.3119 18.192C46.1385 18.192 45.2212 17.808 44.5599 17.04C43.9092 16.272 43.5839 15.216 43.5839 13.872C43.5839 12.9973 43.7225 12.224 43.9999 11.552C44.2879 10.8693 44.6932 10.336 45.2159 9.952C45.7492 9.568 46.3732 9.376 47.0879 9.376C48.2079 9.376 49.0665 9.744 49.6639 10.48C50.2612 11.216 50.5599 12.2347 50.5599 13.536ZM49.1039 13.104C49.1039 12.272 48.9385 11.6373 48.6079 11.2C48.2772 10.7627 47.7812 10.544 47.1199 10.544C45.9145 10.544 45.2585 11.4293 45.1519 13.2H49.1039V13.104ZM58.5304 9.568V18H57.0584V14.768H55.2184L53.4424 18H51.7944L53.8104 14.432C52.8184 13.9627 52.3224 13.2 52.3224 12.144C52.3224 11.312 52.621 10.6773 53.2184 10.24C53.8157 9.792 54.653 9.568 55.7304 9.568H58.5304ZM57.0584 13.648V10.704H55.6984C55.0904 10.704 54.6317 10.8213 54.3224 11.056C54.0237 11.28 53.8744 11.6427 53.8744 12.144C53.8744 12.6773 54.013 13.0613 54.2904 13.296C54.5784 13.5307 55.037 13.648 55.6664 13.648H57.0584Z"/>
    </symbol>
    <symbol id="icon-nav-link-dropdown-06-375" viewBox="0 0 56 26">
      <path d="M6.464 12.176C7.22133 12.304 7.83467 12.5707 8.304 12.976C8.77333 13.3813 9.008 14.0107 9.008 14.864C9.008 16.9547 7.552 18 4.64 18H1.6V6.976H4.208C5.60533 6.976 6.672 7.20533 7.408 7.664C8.15467 8.12267 8.528 8.82133 8.528 9.76C8.528 10.4 8.32533 10.9333 7.92 11.36C7.52533 11.7867 7.04 12.0587 6.464 12.176ZM3.12 8.176V11.648H4.784C5.424 11.648 5.94667 11.4933 6.352 11.184C6.768 10.8747 6.976 10.4373 6.976 9.872C6.976 9.232 6.75733 8.78933 6.32 8.544C5.89333 8.29867 5.24267 8.176 4.368 8.176H3.12ZM4.64 16.784C5.536 16.784 6.21867 16.6507 6.688 16.384C7.168 16.1173 7.408 15.6107 7.408 14.864C7.408 14.1387 7.17867 13.616 6.72 13.296C6.26133 12.976 5.664 12.816 4.928 12.816H3.12V16.784H4.64ZM12.7264 9.568V18H11.2544V9.568H12.7264ZM11.9744 5.52C12.2837 5.52 12.5344 5.616 12.7264 5.808C12.9184 6 13.0144 6.24 13.0144 6.528C13.0144 6.816 12.9184 7.056 12.7264 7.248C12.5344 7.42933 12.2837 7.52 11.9744 7.52C11.6757 7.52 11.4304 7.42933 11.2384 7.248C11.0464 7.056 10.9504 6.816 10.9504 6.528C10.9504 6.24 11.0464 6 11.2384 5.808C11.4304 5.616 11.6757 5.52 11.9744 5.52ZM22.538 16.816V20.4H21.338L21.098 18H15.69L15.45 20.4H14.25V16.816H14.842C15.098 16.6453 15.3007 16.4533 15.45 16.24C15.5993 16.016 15.7327 15.632 15.85 15.088C15.978 14.544 16.0793 13.7493 16.154 12.704L16.378 9.568H21.658V16.816H22.538ZM20.186 10.736H17.706L17.578 12.512C17.5033 13.504 17.418 14.2667 17.322 14.8C17.226 15.3333 17.0873 15.744 16.906 16.032C16.7353 16.32 16.4847 16.5813 16.154 16.816H20.186V10.736ZM26.1639 18H24.6919V9.568H29.9559L29.7639 10.784H26.1639V18ZM34.9273 18.048C34.5966 19.0293 34.1326 19.8027 33.5353 20.368C32.9486 20.944 32.1059 21.2907 31.0073 21.408L30.8473 20.256C31.4019 20.16 31.8446 20.0213 32.1753 19.84C32.5059 19.6587 32.7673 19.424 32.9593 19.136C33.1619 18.8587 33.3486 18.48 33.5193 18H33.0233L30.1913 9.568H31.7593L34.0153 16.928L36.2233 9.568H37.7433L34.9273 18.048ZM45.7463 9.568L43.1863 13.472L46.0503 18H44.3063L41.9703 14.112H40.8983V18H39.4263V9.568H40.8983V12.96H42.0023L44.1303 9.568H45.7463ZM54.2831 18H52.8271V14.192C52.8271 13.552 52.8485 12.944 52.8911 12.368C52.9338 11.792 52.9711 11.4133 53.0031 11.232L49.4671 18H47.7231V9.568H49.1791V13.376C49.1791 13.9413 49.1578 14.528 49.1151 15.136C49.0725 15.7333 49.0405 16.1173 49.0191 16.288L52.5071 9.568H54.2831V18Z"/>
    </symbol>
    <symbol id="icon-nav-link-dropdown-06-378" viewBox="0 0 69 26">
      <path d="M8.96 6.976L5.904 12.144L9.264 18H7.504L4.624 12.832H3.12V18H1.6V6.976H3.12V11.584H4.64L7.36 6.976H8.96ZM13.8911 9.376C15.0751 9.376 15.9925 9.77067 16.6431 10.56C17.3045 11.3493 17.6351 12.4213 17.6351 13.776C17.6351 14.6507 17.4858 15.424 17.1871 16.096C16.8885 16.7573 16.4565 17.2747 15.8911 17.648C15.3258 18.0107 14.6538 18.192 13.8751 18.192C12.6911 18.192 11.7685 17.7973 11.1071 17.008C10.4458 16.2187 10.1151 15.1467 10.1151 13.792C10.1151 12.9173 10.2645 12.1493 10.5631 11.488C10.8618 10.816 11.2938 10.2987 11.8591 9.936C12.4245 9.56267 13.1018 9.376 13.8911 9.376ZM13.8911 10.56C12.4298 10.56 11.6991 11.6373 11.6991 13.792C11.6991 15.936 12.4245 17.008 13.8751 17.008C15.3258 17.008 16.0511 15.9307 16.0511 13.776C16.0511 11.632 15.3311 10.56 13.8911 10.56ZM25.0429 18V14.288H21.5389V18H20.0669V9.568H21.5389V13.104H25.0429V9.568H26.5149V18H25.0429ZM35.2473 9.568L35.0713 10.768H32.3673V18H30.8953V10.768H28.1113V9.568H35.2473ZM41.8094 16.032C41.8094 16.3733 41.868 16.6293 41.9854 16.8C42.1027 16.96 42.2787 17.0827 42.5134 17.168L42.1774 18.192C41.74 18.1387 41.388 18.016 41.1214 17.824C40.8547 17.632 40.6574 17.3333 40.5294 16.928C39.964 17.7707 39.1267 18.192 38.0174 18.192C37.1854 18.192 36.5294 17.9573 36.0494 17.488C35.5694 17.0187 35.3294 16.4053 35.3294 15.648C35.3294 14.752 35.6494 14.064 36.2894 13.584C36.94 13.104 37.8574 12.864 39.0414 12.864H40.3374V12.24C40.3374 11.6427 40.1934 11.216 39.9054 10.96C39.6174 10.704 39.1747 10.576 38.5774 10.576C37.9587 10.576 37.2014 10.7253 36.3054 11.024L35.9374 9.952C36.9827 9.568 37.9534 9.376 38.8494 9.376C39.8414 9.376 40.5827 9.62133 41.0734 10.112C41.564 10.592 41.8094 11.28 41.8094 12.176V16.032ZM38.3534 17.088C39.196 17.088 39.8574 16.6507 40.3374 15.776V13.84H39.2334C37.676 13.84 36.8974 14.416 36.8974 15.568C36.8974 16.0693 37.02 16.448 37.2654 16.704C37.5107 16.96 37.8734 17.088 38.3534 17.088ZM51.1525 9.568L48.5925 13.472L51.4565 18H49.7125L47.3765 14.112H46.3045V18H44.8325V9.568H46.3045V12.96H47.4085L49.5365 9.568H51.1525ZM58.8254 9.568L58.6494 10.768H55.9454V18H54.4734V10.768H51.6894V9.568H58.8254ZM66.9081 18H65.4521V14.192C65.4521 13.552 65.4735 12.944 65.5161 12.368C65.5588 11.792 65.5961 11.4133 65.6281 11.232L62.0921 18H60.3481V9.568H61.8041V13.376C61.8041 13.9413 61.7828 14.528 61.7401 15.136C61.6975 15.7333 61.6655 16.1173 61.6441 16.288L65.1321 9.568H66.9081V18Z"/>
    </symbol>
    <symbol id="icon-tagline-wrapper-62182" viewBox="0 0 95 24">
      <path d="M9.65206 5.928V17H7.30006V7.768H3.68406V17H1.33206V5.928H9.65206ZM16.5319 8.264C17.5986 8.264 18.3879 8.65867 18.8999 9.448C19.4226 10.2267 19.6839 11.3253 19.6839 12.744C19.6839 13.608 19.5506 14.3813 19.2839 15.064C19.0173 15.7467 18.6279 16.2853 18.1159 16.68C17.6146 17.064 17.0173 17.256 16.3239 17.256C15.4599 17.256 14.7613 16.952 14.2279 16.344V20.264L11.9559 20.52V8.52H13.9559L14.0679 9.512C14.3879 9.096 14.7613 8.78667 15.1879 8.584C15.6253 8.37067 16.0733 8.264 16.5319 8.264ZM15.6519 15.56C16.7613 15.56 17.3159 14.6267 17.3159 12.76C17.3159 11.736 17.1933 11.0107 16.9479 10.584C16.7026 10.1573 16.3293 9.944 15.8279 9.944C15.5079 9.944 15.2093 10.0453 14.9319 10.248C14.6653 10.44 14.4306 10.7013 14.2279 11.032V14.728C14.5906 15.2827 15.0653 15.56 15.6519 15.56ZM28.7352 17H26.5592V13.784C26.5592 13.176 26.5912 12.6 26.6552 12.056C26.7192 11.512 26.7885 11.08 26.8632 10.76L23.8552 17H21.4872V8.52H23.6632V11.768C23.6632 12.344 23.6312 12.9147 23.5672 13.48C23.5139 14.0347 23.4499 14.4613 23.3752 14.76L26.3352 8.52H28.7352V17ZM35.5476 8.264C36.6142 8.264 37.4036 8.65867 37.9156 9.448C38.4382 10.2267 38.6996 11.3253 38.6996 12.744C38.6996 13.608 38.5662 14.3813 38.2996 15.064C38.0329 15.7467 37.6436 16.2853 37.1316 16.68C36.6302 17.064 36.0329 17.256 35.3396 17.256C34.4756 17.256 33.7769 16.952 33.2436 16.344V20.264L30.9716 20.52V8.52H32.9716L33.0836 9.512C33.4036 9.096 33.7769 8.78667 34.2036 8.584C34.6409 8.37067 35.0889 8.264 35.5476 8.264ZM34.6676 15.56C35.7769 15.56 36.3316 14.6267 36.3316 12.76C36.3316 11.736 36.2089 11.0107 35.9636 10.584C35.7182 10.1573 35.3449 9.944 34.8436 9.944C34.5236 9.944 34.2249 10.0453 33.9476 10.248C33.6809 10.44 33.4462 10.7013 33.2436 11.032V14.728C33.6062 15.2827 34.0809 15.56 34.6676 15.56ZM44.0708 8.264C45.3401 8.264 46.3321 8.664 47.0468 9.464C47.7615 10.2533 48.1188 11.352 48.1188 12.76C48.1188 13.656 47.9535 14.4453 47.6228 15.128C47.3028 15.8 46.8335 16.3227 46.2148 16.696C45.6068 17.0693 44.8868 17.256 44.0548 17.256C42.7855 17.256 41.7881 16.8613 41.0628 16.072C40.3481 15.272 39.9908 14.168 39.9908 12.76C39.9908 11.864 40.1508 11.08 40.4708 10.408C40.8015 9.72533 41.2708 9.19733 41.8788 8.824C42.4975 8.45067 43.2281 8.264 44.0708 8.264ZM44.0708 9.96C43.4948 9.96 43.0628 10.1893 42.7748 10.648C42.4975 11.096 42.3588 11.8 42.3588 12.76C42.3588 13.72 42.4975 14.4293 42.7748 14.888C43.0628 15.336 43.4895 15.56 44.0548 15.56C44.6201 15.56 45.0415 15.336 45.3188 14.888C45.6068 14.4293 45.7508 13.72 45.7508 12.76C45.7508 11.8 45.6121 11.096 45.3348 10.648C45.0575 10.1893 44.6361 9.96 44.0708 9.96ZM57.1943 15.304V19.592H55.5783L55.3063 17H50.4583L50.1863 19.592H48.5703V15.304H49.1143C49.317 15.1547 49.4823 14.9733 49.6103 14.76C49.749 14.5467 49.8716 14.184 49.9783 13.672C50.085 13.16 50.1756 12.424 50.2503 11.464L50.4743 8.52H56.2983V15.304H57.1943ZM54.1543 10.072H52.4423L52.3463 11.24C52.2716 12.136 52.1756 12.8453 52.0583 13.368C51.9516 13.88 51.8023 14.2853 51.6103 14.584C51.429 14.872 51.1783 15.112 50.8583 15.304H54.1543V10.072ZM63.4769 17V13.544H60.8529V17H58.5809V8.52H60.8529V11.832H63.4769V8.52H65.7489V17H63.4769ZM70.2592 8.52V17H67.9872V8.52H70.2592ZM69.1072 4.152C69.5125 4.152 69.8432 4.28 70.0992 4.536C70.3659 4.78133 70.4992 5.096 70.4992 5.48C70.4992 5.864 70.3659 6.184 70.0992 6.44C69.8432 6.68533 69.5125 6.808 69.1072 6.808C68.7019 6.808 68.3712 6.68533 68.1152 6.44C67.8592 6.184 67.7312 5.864 67.7312 5.48C67.7312 5.096 67.8592 4.78133 68.1152 4.536C68.3712 4.28 68.7019 4.152 69.1072 4.152ZM76.0388 8.264C76.6041 8.264 77.1108 8.34933 77.5588 8.52C78.0175 8.68 78.4495 8.936 78.8548 9.288L77.8628 10.632C77.5855 10.4187 77.3135 10.264 77.0468 10.168C76.7908 10.072 76.5081 10.024 76.1988 10.024C74.9935 10.024 74.3908 10.952 74.3908 12.808C74.3908 13.7467 74.5455 14.4187 74.8548 14.824C75.1641 15.2293 75.6068 15.432 76.1828 15.432C76.4815 15.432 76.7535 15.3893 76.9988 15.304C77.2441 15.208 77.5321 15.0533 77.8628 14.84L78.8548 16.264C78.0441 16.9253 77.1161 17.256 76.0708 17.256C75.2388 17.256 74.5135 17.0747 73.8948 16.712C73.2868 16.3493 72.8175 15.8373 72.4868 15.176C72.1561 14.504 71.9908 13.72 71.9908 12.824C71.9908 11.928 72.1561 11.1387 72.4868 10.456C72.8175 9.76267 73.2868 9.224 73.8948 8.84C74.5135 8.456 75.2281 8.264 76.0388 8.264ZM86.5754 8.52L86.2874 10.232H83.8874V17H81.6154V10.232H79.0714V8.52H86.5754ZM90.6042 11.176C91.9482 11.176 92.9295 11.4267 93.5482 11.928C94.1775 12.4187 94.4922 13.1387 94.4922 14.088C94.4922 15.0373 94.1615 15.7627 93.5002 16.264C92.8495 16.7547 92.0015 17 90.9562 17H87.6122V8.52H89.8842V11.176H90.6042ZM90.7322 15.464C91.6815 15.464 92.1562 14.9947 92.1562 14.056C92.1562 13.5867 92.0389 13.24 91.8042 13.016C91.5695 12.792 91.1642 12.68 90.5882 12.68H89.8842V15.464H90.7322Z"/>
    </symbol>
    <symbol id="icon-tagline-wrapper-62250" viewBox="0 0 72 24">
      <path d="M9.488 5.928V17H7.136V7.768H3.52V17H1.168V5.928H9.488ZM18.9599 12.568C18.9599 12.6747 18.9439 12.968 18.9119 13.448H13.6159C13.6905 14.216 13.8985 14.76 14.2399 15.08C14.5812 15.4 15.0452 15.56 15.6319 15.56C15.9945 15.56 16.3359 15.5013 16.6559 15.384C16.9759 15.2667 17.3225 15.08 17.6959 14.824L18.6399 16.104C17.6905 16.872 16.6185 17.256 15.4239 17.256C14.0905 17.256 13.0665 16.856 12.3519 16.056C11.6372 15.256 11.2799 14.1733 11.2799 12.808C11.2799 11.944 11.4292 11.1707 11.7279 10.488C12.0372 9.79467 12.4799 9.25067 13.0559 8.856C13.6425 8.46133 14.3359 8.264 15.1359 8.264C16.3412 8.264 17.2799 8.64267 17.9519 9.4C18.6239 10.1573 18.9599 11.2133 18.9599 12.568ZM16.7039 11.928C16.7039 10.52 16.1972 9.816 15.1839 9.816C14.7145 9.816 14.3465 9.992 14.0799 10.344C13.8239 10.6853 13.6692 11.2453 13.6159 12.024H16.7039V11.928ZM25.1804 8.264C26.247 8.264 27.0364 8.65867 27.5484 9.448C28.071 10.2267 28.3324 11.3253 28.3324 12.744C28.3324 13.608 28.199 14.3813 27.9324 15.064C27.6657 15.7467 27.2764 16.2853 26.7644 16.68C26.263 17.064 25.6657 17.256 24.9724 17.256C24.1084 17.256 23.4097 16.952 22.8764 16.344V20.264L20.6044 20.52V8.52H22.6044L22.7164 9.512C23.0364 9.096 23.4097 8.78667 23.8364 8.584C24.2737 8.37067 24.7217 8.264 25.1804 8.264ZM24.3004 15.56C25.4097 15.56 25.9644 14.6267 25.9644 12.76C25.9644 11.736 25.8417 11.0107 25.5964 10.584C25.351 10.1573 24.9777 9.944 24.4764 9.944C24.1564 9.944 23.8577 10.0453 23.5804 10.248C23.3137 10.44 23.079 10.7013 22.8764 11.032V14.728C23.239 15.2827 23.7137 15.56 24.3004 15.56ZM37.3036 12.568C37.3036 12.6747 37.2876 12.968 37.2556 13.448H31.9596C32.0343 14.216 32.2423 14.76 32.5836 15.08C32.925 15.4 33.389 15.56 33.9756 15.56C34.3383 15.56 34.6796 15.5013 34.9996 15.384C35.3196 15.2667 35.6663 15.08 36.0396 14.824L36.9836 16.104C36.0343 16.872 34.9623 17.256 33.7676 17.256C32.4343 17.256 31.4103 16.856 30.6956 16.056C29.981 15.256 29.6236 14.1733 29.6236 12.808C29.6236 11.944 29.773 11.1707 30.0716 10.488C30.381 9.79467 30.8236 9.25067 31.3996 8.856C31.9863 8.46133 32.6796 8.264 33.4796 8.264C34.685 8.264 35.6236 8.64267 36.2956 9.4C36.9676 10.1573 37.3036 11.2133 37.3036 12.568ZM35.0476 11.928C35.0476 10.52 34.541 9.816 33.5276 9.816C33.0583 9.816 32.6903 9.992 32.4236 10.344C32.1676 10.6853 32.013 11.2453 31.9596 12.024H35.0476V11.928ZM43.9881 12.36C45.4281 12.52 46.1481 13.2027 46.1481 14.408C46.1481 15.2827 45.8121 15.9333 45.1401 16.36C44.4681 16.7867 43.5561 17 42.4041 17H38.9481V8.616C40.1428 8.38133 41.2148 8.264 42.1641 8.264C43.2841 8.264 44.1641 8.46133 44.8041 8.856C45.4441 9.24 45.7641 9.81067 45.7641 10.568C45.7641 11.048 45.6095 11.4427 45.3001 11.752C45.0015 12.0507 44.5641 12.2533 43.9881 12.36ZM42.1321 9.768C41.8441 9.768 41.5401 9.784 41.2201 9.816V11.864H42.2761C42.6601 11.864 42.9588 11.7787 43.1721 11.608C43.3961 11.4373 43.5081 11.1707 43.5081 10.808C43.5081 10.456 43.3908 10.1947 43.1561 10.024C42.9321 9.85333 42.5908 9.768 42.1321 9.768ZM42.3561 15.464C43.3268 15.464 43.8121 15.0587 43.8121 14.248C43.8121 13.8747 43.6948 13.5973 43.4601 13.416C43.2361 13.2347 42.8735 13.144 42.3721 13.144H41.2201V15.464H42.3561ZM54.1938 14.648C54.1938 14.9787 54.2418 15.224 54.3378 15.384C54.4338 15.5333 54.5938 15.6453 54.8177 15.72L54.3378 17.224C53.8364 17.1813 53.4258 17.064 53.1058 16.872C52.7964 16.68 52.5564 16.3813 52.3858 15.976C51.8311 16.8293 50.9831 17.256 49.8418 17.256C48.9991 17.256 48.3271 17.016 47.8258 16.536C47.3351 16.0453 47.0898 15.4107 47.0898 14.632C47.0898 13.704 47.4258 12.9947 48.0978 12.504C48.7698 12.0133 49.7351 11.768 50.9938 11.768H51.9698V11.352C51.9698 10.8293 51.8524 10.4667 51.6178 10.264C51.3831 10.0613 50.9938 9.96 50.4498 9.96C49.8524 9.96 49.1058 10.1093 48.2098 10.408L47.6978 8.888C48.7538 8.472 49.7991 8.264 50.8338 8.264C51.9858 8.264 52.8338 8.51467 53.3778 9.016C53.9218 9.50667 54.1938 10.2427 54.1938 11.224V14.648ZM50.4658 15.624C51.1058 15.624 51.6071 15.3093 51.9698 14.68V13.064H51.2178C49.9911 13.064 49.3778 13.5227 49.3778 14.44C49.3778 14.8133 49.4684 15.1067 49.6498 15.32C49.8418 15.5227 50.1138 15.624 50.4658 15.624ZM58.7358 17H56.4638V8.52H62.2878L62.0158 10.264H58.7358V17ZM70.618 17H68.442V13.784C68.442 13.176 68.474 12.6 68.538 12.056C68.602 11.512 68.6713 11.08 68.746 10.76L65.738 17H63.37V8.52H65.546V11.768C65.546 12.344 65.514 12.9147 65.45 13.48C65.3967 14.0347 65.3327 14.4613 65.258 14.76L68.218 8.52H70.618V17Z"/>
    </symbol>
    <symbol id="icon-content-29-455" viewBox="0 0 84 36">
      <path d="M14.6629 2.50002C14.5028 2.50015 14.3339 2.50029 14.1756 2.51918C12.3355 2.67268 10.6445 3.45435 9.4403 4.87838C8.12981 6.4281 7.81289 8.06087 7.82824 10.0338L4.3225 10.0284C4.16547 10.0283 4.00314 10.0238 3.83852 10.0192C3.38113 10.0066 2.90604 9.99341 2.47757 10.0719C2.21917 10.1193 1.9937 10.245 1.81199 10.4341C1.49383 10.7653 1.4861 11.1837 1.50677 11.6123C1.53938 12.288 1.59742 12.9647 1.65539 13.6406C1.68693 14.0082 1.71847 14.376 1.74588 14.7432L2.32775 22.2617L2.61087 25.8925C2.62481 26.0717 2.63595 26.2527 2.64714 26.4345C2.68712 27.0843 2.72769 27.7436 2.89923 28.3652C3.19558 29.4222 3.78292 30.3746 4.59431 31.1143C5.30343 31.7582 6.16054 32.2176 7.08966 32.4513C7.87553 32.641 8.78853 32.6195 9.64613 32.5994C9.90139 32.5934 10.1517 32.5875 10.3924 32.5873L15.1119 32.5859L19.2338 32.5877C19.459 32.5877 19.6908 32.5932 19.9254 32.5988C20.6868 32.6169 21.4803 32.6358 22.1918 32.4699C23.1926 32.237 24.2055 31.6875 24.9362 30.963C25.6161 30.2885 26.1594 29.3879 26.3968 28.4575C26.5784 27.7456 26.624 26.9648 26.6682 26.2075C26.6825 25.9633 26.6966 25.7214 26.7151 25.4852L27.1019 20.5057L27.5843 14.3916C27.6076 14.0896 27.6378 13.7844 27.6681 13.4785C27.7337 12.8156 27.7998 12.1476 27.7983 11.4924C27.7976 11.0895 27.7123 10.7135 27.4235 10.4142C27.2248 10.208 26.8999 10.1073 26.625 10.0625C26.2129 9.99528 25.7611 10.0073 25.324 10.0189C25.1623 10.0232 25.0027 10.0274 24.8479 10.0275C23.7454 10.0254 22.6424 10.0293 21.5399 10.0392L21.4925 10.0399C21.5184 7.92706 21.048 6.11406 19.5291 4.56884C18.2599 3.25378 16.5134 2.50766 14.686 2.5L14.6629 2.50002ZM21.3448 14.5514L21.4042 14.5549C21.4058 14.5589 21.4073 14.5627 21.4087 14.5661C21.4094 14.568 21.4102 14.5697 21.4109 14.5714C21.4134 14.5777 21.4158 14.5832 21.4179 14.5879L21.4203 14.5936C21.4312 14.6183 21.4332 14.6228 21.4327 14.6626C21.4137 17.2533 20.7202 20.5888 18.8815 22.4862C17.1788 24.2432 14.5347 25.1054 12.1235 25.1532C13.2466 23.0408 15.0514 21.0374 16.913 19.5496C17.2009 19.3197 17.5023 19.1118 17.8039 18.9039C17.9981 18.77 18.1923 18.6361 18.3831 18.4961C18.5683 18.3602 18.8177 18.1758 18.844 17.9279C18.868 17.6996 18.7466 17.5225 18.6037 17.3594C18.4035 17.2434 18.257 17.195 18.0284 17.262C17.7038 17.3573 17.3768 17.5974 17.0816 17.8141C17.0034 17.8715 16.9274 17.9274 16.8543 17.9783C14.4673 19.6687 12.4838 21.866 11.046 24.413C10.9975 22.3408 11.4694 20.605 12.7402 18.9381C14.6474 16.4367 18.2978 14.9666 21.3448 14.5514ZM2.81457 11.3261L26.4974 11.3258C26.4133 12.1234 26.3589 12.9283 26.3045 13.732C26.2743 14.1797 26.244 14.6274 26.2086 15.0731L25.5709 23.0641L25.3325 26.0088C25.3219 26.1367 25.3122 26.2651 25.3025 26.3939C25.2642 26.902 25.2256 27.4146 25.1276 27.912C25.0269 28.4225 24.8315 28.8662 24.5668 29.3114C24.4647 29.4663 24.3539 29.6155 24.235 29.758C23.5485 30.5784 22.4215 31.1894 21.351 31.2704C20.7681 31.3144 20.1683 31.3034 19.5742 31.2925C19.3171 31.2877 19.0609 31.283 18.8075 31.2828L13.8941 31.2813L9.98425 31.2831C9.79567 31.2832 9.60373 31.2872 9.41036 31.2912C8.81738 31.3035 8.21023 31.316 7.64032 31.2179C6.89281 31.0874 6.19423 30.7581 5.61819 30.2644C4.92818 29.6825 4.43297 28.9034 4.19933 28.0316C4.0395 27.4538 3.99965 26.8381 3.96052 26.2336C3.95069 26.0817 3.9409 25.9306 3.92927 25.7809L3.69673 22.7847L2.81457 11.3261ZM21.8707 13.163L21.8531 13.1648C18.2581 13.5807 14.1654 15.0594 11.8417 17.9715C10.3481 19.8431 9.53212 22.2775 9.80163 24.6748C9.86081 25.2012 9.98003 25.7043 10.1519 26.2049C10.1324 26.2547 10.1087 26.3143 10.0817 26.3821C9.78668 27.1236 9.10091 28.8472 9.33942 29.3569C9.40841 29.5042 9.54893 29.6031 9.70129 29.6515C9.76408 29.6712 9.8273 29.6825 9.89264 29.6902C10.094 29.657 10.2802 29.6154 10.4014 29.4353C10.5316 29.2415 10.6649 28.776 10.7789 28.3779C10.8333 28.1882 10.8832 28.0138 10.9264 27.8912C11.0741 27.4717 11.2418 27.059 11.4093 26.6469L11.4113 26.6421C11.4309 26.5938 11.4505 26.5456 11.47 26.4974C14.4345 26.5061 17.6007 25.5782 19.7453 23.4622C22.1437 21.0953 22.7478 17.2787 22.7526 14.0488C22.7529 13.7942 22.7354 13.492 22.5491 13.2972C22.4346 13.1774 22.2622 13.1413 22.1021 13.1448C22.0249 13.1465 21.9476 13.1548 21.8707 13.163ZM14.3747 3.79533C14.4895 3.78822 14.6048 3.7818 14.7196 3.7826C16.1277 3.79249 17.5376 4.42227 18.5272 5.41464C19.8744 6.7659 20.15 8.19982 20.1529 10.0339L14.9938 10.0311L9.18838 10.0383C9.14397 8.46179 9.39788 7.02185 10.4322 5.77702C11.4257 4.58116 12.8438 3.93209 14.3747 3.79533Z"/><path d="M21.4043 14.5549L21.3448 14.5514C18.2978 14.9666 14.6474 16.4367 12.7403 18.9381C11.4694 20.6049 10.9975 22.3408 11.046 24.413C12.4838 21.866 14.4673 19.6686 16.8544 17.9783C16.9275 17.9274 17.0035 17.8715 17.0817 17.8141C17.3768 17.5974 17.7039 17.3573 18.0284 17.262C18.257 17.195 18.4036 17.2434 18.6038 17.3594C18.7467 17.5225 18.8681 17.6996 18.844 17.9279C18.8178 18.1758 18.5684 18.3602 18.3832 18.4961C18.1924 18.636 17.9981 18.77 17.804 18.9039C17.5024 19.1118 17.201 19.3196 16.9131 19.5496C15.0514 21.0374 13.2466 23.0408 12.1235 25.1532C14.5348 25.1054 17.1789 24.2432 18.8816 22.4862C20.7203 20.5888 21.4138 17.2533 21.4327 14.6626C21.4332 14.6228 21.4313 14.6183 21.4204 14.5936C21.4178 14.5877 21.4146 14.5804 21.4109 14.5714C21.4089 14.5665 21.4067 14.561 21.4043 14.5549ZM21.8531 13.1648L21.8707 13.163C21.9477 13.1548 22.0249 13.1465 22.1021 13.1448C22.2622 13.1413 22.4347 13.1774 22.5491 13.2972C22.7354 13.492 22.753 13.7941 22.7526 14.0488C22.7478 17.2787 22.1437 21.0953 19.7453 23.4622C17.6007 25.5782 14.4345 26.5061 11.4701 26.4974C11.4505 26.5456 11.4309 26.5938 11.4113 26.6421L11.4093 26.6469C11.2418 27.059 11.0741 27.4717 10.9264 27.8912C10.8833 28.0138 10.8333 28.1882 10.779 28.3779C10.665 28.776 10.5317 29.2415 10.4015 29.4353C10.2803 29.6154 10.0941 29.657 9.89268 29.6902C9.82734 29.6825 9.76412 29.6712 9.70133 29.6515C9.54896 29.603 9.40845 29.5042 9.33946 29.3569C9.10095 28.8472 9.78672 27.1236 10.0818 26.3821C10.1087 26.3143 10.1325 26.2547 10.1519 26.2049C9.98007 25.7043 9.86084 25.2012 9.80167 24.6748C9.53216 22.2775 10.3481 19.8431 11.8417 17.9715C14.1654 15.0594 18.2581 13.5807 21.8531 13.1648Z"/><path d="M21.8708 13.163L21.8532 13.1648C18.2582 13.5807 14.1655 15.0594 11.8417 17.9715C10.3482 19.8431 9.5322 22.2775 9.80171 24.6748C9.86089 25.2012 9.98011 25.7043 10.152 26.2049C10.1325 26.2547 10.1088 26.3143 10.0818 26.3821C9.78677 27.1236 9.10099 28.8472 9.3395 29.3569C9.40849 29.5042 9.54901 29.603 9.70138 29.6515C9.76416 29.6712 9.82738 29.6825 9.89272 29.6902C10.0941 29.657 10.2803 29.6154 10.4015 29.4353C10.5317 29.2415 10.6649 28.7763 10.779 28.3781C10.8333 28.1884 10.8833 28.0139 10.9265 27.8912C11.0742 27.4716 11.2419 27.059 11.4094 26.6469C11.41 26.6453 11.4107 26.6437 11.4113 26.6421C11.4309 26.5938 11.4505 26.5456 11.4701 26.4974C14.4346 26.5061 17.6008 25.5782 19.7454 23.4622C22.1437 21.0953 22.7479 17.2787 22.7526 14.0488C22.753 13.7941 22.7355 13.492 22.5492 13.2972C22.4347 13.1774 22.2622 13.1413 22.1022 13.1448C22.0249 13.1465 21.9477 13.1548 21.8708 13.163ZM21.3449 14.5514L21.4043 14.5549C21.4067 14.561 21.4089 14.5665 21.4109 14.5714C21.4147 14.5805 21.4178 14.5876 21.4204 14.5936C21.4313 14.6183 21.4333 14.6228 21.4328 14.6626C21.4138 17.2533 20.7203 20.5888 18.8816 22.4862C17.1789 24.2432 14.5348 25.1054 12.1235 25.1532C13.2467 23.0408 15.0515 21.0374 16.9131 19.5496C17.201 19.3196 17.5024 19.1118 17.804 18.9039C17.9982 18.77 18.1924 18.636 18.3832 18.4961C18.5684 18.3602 18.8178 18.1758 18.8441 17.9279C18.8681 17.6996 18.7467 17.5225 18.6038 17.3594C18.4036 17.2434 18.2571 17.195 18.0284 17.262C17.7039 17.3573 17.3769 17.5974 17.0817 17.8141C17.0035 17.8715 16.9275 17.9274 16.8544 17.9783C14.4674 19.6686 12.4839 21.866 11.0461 24.413C10.9976 22.3408 11.4694 20.6049 12.7403 18.9381C14.6475 16.4367 18.2979 14.9666 21.3449 14.5514Z"/><path d="M68.1602 21.9424C68.0703 19.3959 65.9334 17.4047 63.3874 17.4942C60.8406 17.5833 58.8486 19.7209 58.9385 22.2674C59.0284 24.8142 61.166 26.8058 63.7124 26.7159C66.2589 26.6256 68.2501 24.4884 68.1602 21.9424ZM63.5477 18.8785C64.2905 18.9086 64.8925 19.0872 65.4587 19.5887C66.1336 20.1859 66.5099 21.0487 66.5591 21.9424C66.6087 22.8369 66.3272 23.7436 65.7183 24.4099C65.1618 25.0188 64.4678 25.2914 63.6547 25.332C62.9127 25.3243 62.3005 25.2088 61.7152 24.7219C61.0314 24.1532 60.6449 23.3112 60.5721 22.4325C60.4969 21.5189 60.736 20.5744 61.3426 19.8735C61.9442 19.1787 62.6548 18.9395 63.5477 18.8785Z"/><path d="M55.3375 21.5604C55.034 19.0282 52.7331 17.2233 50.2017 17.5316C47.6771 17.8391 45.878 20.1326 46.1807 22.6578C46.4834 25.1831 48.7735 26.9864 51.2993 26.6886C53.8318 26.3896 55.641 24.0921 55.3375 21.5604ZM50.3494 18.9159C51.0881 18.8557 51.7573 18.9334 52.3811 19.3625C53.0815 19.8442 53.522 20.5882 53.6676 21.4192C53.8329 22.3629 53.6775 23.3721 53.1097 24.1584C52.6127 24.8471 51.9916 25.1888 51.1642 25.3206C50.4084 25.3593 49.7407 25.3133 49.1042 24.863C48.4177 24.3793 47.9551 23.6394 47.8211 22.8104C47.6668 21.8959 47.8516 20.8436 48.3975 20.0829C48.8772 19.4146 49.547 19.044 50.3494 18.9159Z"/><path d="M77.8325 17.4885C77.8097 17.4893 77.7874 17.4909 77.7646 17.4938C76.6032 17.6309 75.5574 18.193 74.8272 19.1148C73.9942 20.1671 73.7082 21.5014 73.8725 22.821C74.0072 23.9799 74.6003 25.0367 75.5192 25.7563C76.6077 26.602 77.9879 26.8168 79.3327 26.6329C80.1109 26.5263 81.2804 26.1537 81.7779 25.5061C81.9178 25.3243 81.9882 25.1022 81.956 24.8728C81.9333 24.7117 81.8625 24.5575 81.7299 24.4587C81.5773 24.3452 81.3739 24.3309 81.1929 24.3663C80.9413 24.4154 80.7157 24.571 80.5018 24.7185C80.4567 24.7496 80.4122 24.7804 80.368 24.8097C79.4287 25.2978 78.387 25.5273 77.3538 25.1925C76.6187 24.9505 76.0114 24.4229 75.6697 23.7281C75.4915 23.373 75.4028 22.9959 75.3239 22.609H79.7566C79.941 22.6093 80.139 22.6156 80.3425 22.6221C80.868 22.639 81.4308 22.657 81.8946 22.5741C82.0268 22.5505 82.1529 22.4797 82.2489 22.3861C82.467 22.1738 82.5056 21.8732 82.4991 21.5831C82.4743 20.4726 81.9528 19.3772 81.1449 18.6259C80.2122 17.7582 79.087 17.432 77.8325 17.4885ZM77.9692 18.876C78.642 18.7971 79.3205 18.9688 79.875 19.3589C80.5376 19.8299 80.8858 20.4987 81.0253 21.2858C80.4634 21.2926 79.9007 21.291 79.3383 21.2895C79.0572 21.2887 78.776 21.288 78.4952 21.2882L75.3776 21.2923C75.5204 20.8127 75.686 20.377 75.9927 19.9751C76.4869 19.328 77.1711 18.981 77.9692 18.876Z"/><path d="M53.1448 14.1921C54.8086 14.1526 56.4813 14.1892 58.1463 14.1864C59.0945 14.1847 60.3059 14.1078 61.2264 14.2026C61.3745 14.2181 61.4924 14.26 61.6051 14.3584C61.7654 14.4984 61.872 14.7095 61.8776 14.9234C61.8825 15.1167 61.7642 15.3384 61.6246 15.4681C61.5181 15.5666 61.3911 15.606 61.2508 15.6288C60.8676 15.6906 60.4446 15.6544 60.0557 15.654L57.9901 15.6504L57.9892 23.3165C57.9921 23.9625 58.0739 25.3716 57.9766 25.9211C57.9461 26.0936 57.8835 26.2657 57.7647 26.3979C57.637 26.5398 57.4608 26.6114 57.2713 26.6155C57.0728 26.62 56.8791 26.5764 56.736 26.432C56.5675 26.2632 56.5057 26.0147 56.485 25.784C56.4467 25.3585 56.4817 24.9082 56.4866 24.4807C56.4939 23.8482 56.4882 23.2152 56.4878 22.5827L56.4927 15.6491C55.8057 15.6524 53.4277 15.7618 52.9407 15.5409C52.7629 15.4604 52.6512 15.3359 52.5867 15.1508C52.5179 14.954 52.5492 14.7441 52.6487 14.5634C52.7651 14.3519 52.9205 14.2612 53.1448 14.1921Z"/><path d="M42.2619 17.4946C42.8799 17.4596 43.4837 17.4991 44.0838 17.6598C44.7174 17.8294 45.6865 18.2032 46.0141 18.8045C46.1041 18.97 46.1511 19.1681 46.0876 19.3512C46.0226 19.5379 45.8453 19.6807 45.6666 19.7539C45.1454 19.9674 44.493 19.2495 44.0028 19.0648C43.2055 18.7642 42.2467 18.7809 41.4711 19.1429C40.7585 19.4756 40.2462 20.1057 39.9809 20.8375C39.673 21.6869 39.647 22.7946 40.0379 23.6224C40.4004 24.3895 41.0673 24.9257 41.8583 25.2051C42.7636 25.5253 43.7067 25.3548 44.5527 24.9493C44.8148 24.8073 45.0529 24.6181 45.3516 24.5563C45.5059 24.5246 45.6583 24.5413 45.7899 24.6324C45.9518 24.7447 46.0828 24.9668 46.1043 25.1628C46.1245 25.3467 46.053 25.5159 45.9389 25.6571C45.444 26.2705 44.3424 26.5788 43.5926 26.6708C42.2915 26.8302 40.9362 26.5695 39.8949 25.7392C38.916 24.9741 38.2932 23.8416 38.1714 22.6054C38.0424 21.3737 38.4036 20.1407 39.1768 19.1734C39.9606 18.2097 41.0301 17.6264 42.2619 17.4946Z"/><path d="M70.0523 15.1667C70.0784 15.1655 70.104 15.1642 70.1296 15.1634C70.3603 15.1561 70.5921 15.2179 70.7552 15.388C71.1441 15.7943 70.9895 17.1636 70.9851 17.7241C71.5147 17.7273 72.8034 17.5626 73.2004 17.9157C73.344 18.0438 73.4026 18.2212 73.403 18.4103C73.4038 18.5938 73.3562 18.7695 73.2199 18.8989C72.8489 19.2503 71.5094 19.112 70.9843 19.1088C70.9891 20.2347 70.837 23.7054 71.184 24.5596C71.7449 25.941 72.9608 24.726 73.6544 25.0526C73.8028 25.1226 73.9245 25.2703 73.9794 25.424C74.0575 25.6429 73.9879 25.8385 73.898 26.0395C73.8826 26.0566 73.8671 26.0732 73.8516 26.0899C73.4327 26.5264 72.6455 26.6313 72.0675 26.6395C71.3967 26.6492 70.7626 26.5353 70.2671 26.0391C69.9091 25.6803 69.6866 25.1881 69.5776 24.6983C69.4092 23.9417 69.4788 23.1042 69.4792 22.3325L69.4812 19.11C69.0744 19.1096 68.6672 19.1067 68.2605 19.1002C68.1933 19.0583 68.1279 19.0152 68.0689 18.9619C67.9082 18.8171 67.835 18.6011 67.8293 18.3884C67.8244 18.2102 67.8789 18.0345 68.0119 17.9112C68.3406 17.6069 69.0634 17.716 69.4812 17.7233C69.48 17.1371 69.3514 16.086 69.5727 15.5702C69.6712 15.3412 69.8319 15.2582 70.0523 15.1667Z"/><path fill-rule="evenodd" clip-rule="evenodd" d="M37.7793 14.9471C37.0784 14.8783 33.6478 14.9027 32.4576 14.9202C32.2388 14.9234 32.0358 14.9383 31.8576 14.9514C31.7059 14.9626 31.5722 14.9725 31.4618 14.9726C31.4618 14.9726 30.9881 15.0838 30.8345 15.2971C30.7341 15.4369 30.6998 15.6141 30.6758 15.781C30.5487 16.6672 30.4743 17.5714 30.4001 18.4726C30.3611 18.9469 30.3221 19.4204 30.2756 19.89L29.8242 24.4455C29.8122 24.5673 29.7914 24.7335 29.7677 24.9223C29.6913 25.5325 29.5854 26.3777 29.6539 26.7141C29.6918 26.9005 29.7906 27.0545 29.9555 27.1517C30.1181 27.2476 30.3025 27.3022 30.4876 27.3336L30.4893 27.3336C30.8721 27.3328 31.4492 27.3388 32.0941 27.3454C33.4312 27.3593 36.8311 27.3761 37.6217 27.3421C37.7793 27.3352 37.9464 27.3218 38.095 27.2656C38.2945 27.19 38.4586 27.0456 38.5375 26.8446C38.617 26.6425 38.5993 26.4159 38.5092 26.2206C38.4186 26.0237 38.2962 25.9188 38.0908 25.8529H31.2572C31.3712 24.8468 31.4732 23.8395 31.563 22.831L31.6437 22.0112L31.6515 21.9299C31.7049 21.9306 31.7752 21.9317 31.8588 21.9329C32.5548 21.9434 35.9424 21.9678 36.3741 21.9035C36.5325 21.8799 36.6804 21.84 36.7963 21.7233C36.9463 21.5719 37.0087 21.3629 36.9963 21.153C36.9858 20.9748 36.9069 20.7808 36.7715 20.6608C36.6811 20.581 36.5691 20.5294 36.4495 20.5127C36.0461 20.454 33.0343 20.4699 32.274 20.4797C32.0701 20.4823 31.9006 20.4845 31.7911 20.4846L32.1375 16.3977H35.8253C36.0133 16.3978 36.2092 16.4041 36.408 16.4105C36.8893 16.4259 37.3881 16.4419 37.8357 16.3725C37.9949 16.3481 38.1314 16.2936 38.2469 16.1777C38.3883 16.0357 38.4657 15.8209 38.4548 15.6216C38.4437 15.4182 38.3343 15.2246 38.1752 15.0997C38.054 15.0045 37.9312 14.9618 37.7793 14.9471Z"/>
    </symbol>
    <symbol id="icon-logo-07-529" viewBox="0 0 81 30">
      <path d="M13.1629 2.09967e-05C13.0028 0.00015209 12.8339 0.000290295 12.6756 0.0191782C10.8355 0.172676 9.14452 0.954351 7.9403 2.37838C6.62981 3.9281 6.31289 5.56087 6.32824 7.53378L2.8225 7.52842C2.66547 7.52828 2.50314 7.52379 2.33852 7.51923C1.88113 7.50657 1.40604 7.49341 0.97757 7.57191C0.719175 7.61928 0.493704 7.74495 0.311985 7.93411C-0.00616872 8.26532 -0.0138996 8.68367 0.00677402 9.11226C0.0393812 9.78803 0.0974199 10.4647 0.155392 11.1406C0.186929 11.5082 0.218473 11.876 0.245881 12.2432L0.827754 19.7617L1.11087 23.3925C1.12481 23.5717 1.13595 23.7527 1.14714 23.9345C1.18712 24.5843 1.22769 25.2436 1.39923 25.8652C1.69558 26.9222 2.28292 27.8746 3.09431 28.6143C3.80343 29.2582 4.66054 29.7176 5.58966 29.9513C6.37553 30.141 7.28853 30.1195 8.14613 30.0994C8.40139 30.0934 8.65173 30.0875 8.89236 30.0873L13.6119 30.0859L17.7338 30.0877C17.959 30.0877 18.1908 30.0932 18.4254 30.0988C19.1868 30.1169 19.9803 30.1358 20.6918 29.9699C21.6926 29.737 22.7055 29.1875 23.4362 28.463C24.1161 27.7885 24.6594 26.8879 24.8968 25.9575C25.0784 25.2456 25.124 24.4648 25.1682 23.7075C25.1825 23.4633 25.1966 23.2214 25.2151 22.9852L25.6019 18.0057L26.0843 11.8916C26.1076 11.5896 26.1378 11.2844 26.1681 10.9785C26.2337 10.3156 26.2998 9.64761 26.2983 8.99245C26.2976 8.58945 26.2123 8.21351 25.9235 7.91424C25.7248 7.70802 25.3999 7.60732 25.125 7.56247C24.7129 7.49528 24.2611 7.50727 23.824 7.51886C23.6623 7.52315 23.5027 7.52738 23.3479 7.52754C22.2454 7.52539 21.1424 7.52929 20.0399 7.53917L19.9925 7.53986C20.0184 5.42706 19.548 3.61406 18.0291 2.06884C16.7599 0.753782 15.0134 0.00765668 13.186 0L13.1629 2.09967e-05ZM19.8448 12.0514L19.9042 12.0549C19.9058 12.0589 19.9073 12.0627 19.9087 12.0661C19.9094 12.068 19.9102 12.0697 19.9109 12.0714C19.9134 12.0777 19.9158 12.0832 19.9179 12.0879L19.9203 12.0936C19.9312 12.1183 19.9332 12.1228 19.9327 12.1626C19.9137 14.7533 19.2202 18.0888 17.3815 19.9862C15.6788 21.7432 13.0347 22.6054 10.6235 22.6532C11.7466 20.5408 13.5514 18.5374 15.413 17.0496C15.7009 16.8197 16.0023 16.6118 16.3039 16.4039C16.4981 16.27 16.6923 16.1361 16.8831 15.9961C17.0683 15.8602 17.3177 15.6758 17.344 15.4279C17.368 15.1996 17.2466 15.0225 17.1037 14.8594C16.9035 14.7434 16.757 14.695 16.5284 14.762C16.2038 14.8573 15.8768 15.0974 15.5816 15.3141C15.5034 15.3715 15.4274 15.4274 15.3543 15.4783C12.9673 17.1687 10.9838 19.366 9.54598 21.913C9.49749 19.8408 9.96936 18.105 11.2402 16.4381C13.1474 13.9367 16.7978 12.4666 19.8448 12.0514ZM1.31457 8.82615L24.9974 8.82578C24.9133 9.62341 24.8589 10.4283 24.8045 11.232C24.7743 11.6797 24.744 12.1274 24.7086 12.5731L24.0709 20.5641L23.8325 23.5088C23.8219 23.6367 23.8122 23.7651 23.8025 23.8939C23.7642 24.402 23.7256 24.9146 23.6276 25.412C23.5269 25.9225 23.3315 26.3662 23.0668 26.8114C22.9647 26.9663 22.8539 27.1155 22.735 27.258C22.0485 28.0784 20.9215 28.6894 19.851 28.7704C19.2681 28.8144 18.6683 28.8034 18.0742 28.7925C17.8171 28.7877 17.5609 28.783 17.3075 28.7828L12.3941 28.7813L8.48425 28.7831C8.29567 28.7832 8.10373 28.7872 7.91036 28.7912C7.31738 28.8035 6.71023 28.816 6.14032 28.7179C5.39281 28.5874 4.69423 28.2581 4.11819 27.7644C3.42818 27.1825 2.93297 26.4034 2.69933 25.5316C2.5395 24.9538 2.49965 24.3381 2.46052 23.7336C2.45069 23.5817 2.4409 23.4306 2.42927 23.2809L2.19673 20.2847L1.31457 8.82615ZM20.3707 10.663L20.3531 10.6648C16.7581 11.0807 12.6654 12.5594 10.3417 15.4715C8.8481 17.3431 8.03212 19.7775 8.30163 22.1748C8.36081 22.7012 8.48003 23.2043 8.65187 23.7049C8.63243 23.7547 8.60871 23.8143 8.58172 23.8821C8.28668 24.6236 7.60091 26.3472 7.83942 26.8569C7.90841 27.0042 8.04893 27.1031 8.20129 27.1515C8.26408 27.1712 8.3273 27.1825 8.39264 27.1902C8.59404 27.157 8.78021 27.1154 8.90144 26.9353C9.03162 26.7415 9.16492 26.276 9.27894 25.8779C9.33326 25.6882 9.38321 25.5138 9.4264 25.3912C9.5741 24.9717 9.74181 24.559 9.9093 24.1469L9.91125 24.1421C9.93086 24.0938 9.95046 24.0456 9.97002 23.9974C12.9345 24.0061 16.1007 23.0782 18.2453 20.9622C20.6437 18.5953 21.2478 14.7787 21.2526 11.5488C21.2529 11.2942 21.2354 10.992 21.0491 10.7972C20.9346 10.6774 20.7622 10.6413 20.6021 10.6448C20.5249 10.6465 20.4476 10.6548 20.3707 10.663ZM12.8747 1.29533C12.9895 1.28822 13.1048 1.2818 13.2196 1.2826C14.6277 1.29249 16.0376 1.92227 17.0272 2.91464C18.3744 4.2659 18.65 5.69982 18.6529 7.53389L13.4938 7.53108L7.68838 7.5383C7.64397 5.96179 7.89788 4.52185 8.93215 3.27702C9.92574 2.08116 11.3438 1.43209 12.8747 1.29533Z"/><path d="M19.9043 12.0549L19.8448 12.0514C16.7978 12.4666 13.1474 13.9367 11.2403 16.4381C9.9694 18.1049 9.49753 19.8408 9.54602 21.913C10.9838 19.366 12.9673 17.1686 15.3544 15.4783C15.4275 15.4274 15.5035 15.3715 15.5817 15.3141C15.8768 15.0974 16.2039 14.8573 16.5284 14.762C16.757 14.695 16.9036 14.7434 17.1038 14.8594C17.2467 15.0225 17.3681 15.1996 17.344 15.4279C17.3178 15.6758 17.0684 15.8602 16.8832 15.9961C16.6924 16.136 16.4981 16.27 16.304 16.4039C16.0024 16.6118 15.701 16.8196 15.4131 17.0496C13.5514 18.5374 11.7466 20.5408 10.6235 22.6532C13.0348 22.6054 15.6789 21.7432 17.3816 19.9862C19.2203 18.0888 19.9138 14.7533 19.9327 12.1626C19.9332 12.1228 19.9313 12.1183 19.9204 12.0936C19.9178 12.0877 19.9146 12.0804 19.9109 12.0714C19.9089 12.0665 19.9067 12.061 19.9043 12.0549ZM20.3531 10.6648L20.3707 10.663C20.4477 10.6548 20.5249 10.6465 20.6021 10.6448C20.7622 10.6413 20.9347 10.6774 21.0491 10.7972C21.2354 10.992 21.253 11.2941 21.2526 11.5488C21.2478 14.7787 20.6437 18.5953 18.2453 20.9622C16.1007 23.0782 12.9345 24.0061 9.97006 23.9974C9.9505 24.0456 9.9309 24.0938 9.91129 24.1421L9.90933 24.1469C9.74184 24.559 9.57413 24.9717 9.42644 25.3912C9.38325 25.5138 9.3333 25.6882 9.27899 25.8779C9.16497 26.276 9.03166 26.7415 8.90148 26.9353C8.78025 27.1154 8.59408 27.157 8.39268 27.1902C8.32734 27.1825 8.26412 27.1712 8.20133 27.1515C8.04896 27.103 7.90845 27.0042 7.83946 26.8569C7.60095 26.3472 8.28672 24.6236 8.58176 23.8821C8.60875 23.8143 8.63247 23.7547 8.65191 23.7049C8.48007 23.2043 8.36084 22.7012 8.30167 22.1748C8.03216 19.7775 8.84814 17.3431 10.3417 15.4715C12.6654 12.5594 16.7581 11.0807 20.3531 10.6648Z"/><path d="M20.3708 10.663L20.3532 10.6648C16.7582 11.0807 12.6655 12.5594 10.3417 15.4715C8.84818 17.3431 8.0322 19.7775 8.30171 22.1748C8.36089 22.7012 8.48011 23.2043 8.65195 23.7049C8.63251 23.7547 8.60879 23.8143 8.5818 23.8821C8.28677 24.6236 7.60099 26.3472 7.8395 26.8569C7.90849 27.0042 8.04901 27.103 8.20138 27.1515C8.26416 27.1712 8.32738 27.1825 8.39272 27.1902C8.59413 27.157 8.78029 27.1154 8.90152 26.9353C9.0317 26.7415 9.16494 26.2763 9.27896 25.8781C9.3333 25.6884 9.38328 25.5139 9.42648 25.3912C9.57418 24.9716 9.74188 24.559 9.90938 24.1469C9.91003 24.1453 9.91068 24.1437 9.91133 24.1421C9.93094 24.0938 9.95054 24.0456 9.97011 23.9974C12.9346 24.0061 16.1008 23.0782 18.2454 20.9622C20.6437 18.5953 21.2479 14.7787 21.2526 11.5488C21.253 11.2941 21.2355 10.992 21.0492 10.7972C20.9347 10.6774 20.7622 10.6413 20.6022 10.6448C20.5249 10.6465 20.4477 10.6548 20.3708 10.663ZM19.8449 12.0514L19.9043 12.0549C19.9067 12.061 19.9089 12.0665 19.9109 12.0714C19.9147 12.0805 19.9178 12.0876 19.9204 12.0936C19.9313 12.1183 19.9333 12.1228 19.9328 12.1626C19.9138 14.7533 19.2203 18.0888 17.3816 19.9862C15.6789 21.7432 13.0348 22.6054 10.6235 22.6532C11.7467 20.5408 13.5515 18.5374 15.4131 17.0496C15.701 16.8196 16.0024 16.6118 16.304 16.4039C16.4982 16.27 16.6924 16.136 16.8832 15.9961C17.0684 15.8602 17.3178 15.6758 17.3441 15.4279C17.3681 15.1996 17.2467 15.0225 17.1038 14.8594C16.9036 14.7434 16.7571 14.695 16.5284 14.762C16.2039 14.8573 15.8769 15.0974 15.5817 15.3141C15.5035 15.3715 15.4275 15.4274 15.3544 15.4783C12.9674 17.1686 10.9839 19.366 9.54606 21.913C9.49757 19.8408 9.96944 18.1049 11.2403 16.4381C13.1475 13.9367 16.7979 12.4666 19.8449 12.0514Z"/><path d="M66.6602 19.4424C66.5703 16.8959 64.4334 14.9047 61.8874 14.9942C59.3406 15.0833 57.3486 17.2209 57.4385 19.7674C57.5284 22.3142 59.666 24.3058 62.2124 24.2159C64.7589 24.1256 66.7501 21.9884 66.6602 19.4424ZM62.0477 16.3785C62.7905 16.4086 63.3925 16.5872 63.9587 17.0887C64.6336 17.6859 65.0099 18.5487 65.0591 19.4424C65.1087 20.3369 64.8272 21.2436 64.2183 21.9099C63.6618 22.5188 62.9678 22.7914 62.1547 22.832C61.4127 22.8243 60.8005 22.7088 60.2152 22.2219C59.5314 21.6532 59.1449 20.8112 59.0721 19.9325C58.9969 19.0189 59.236 18.0744 59.8426 17.3735C60.4442 16.6787 61.1548 16.4395 62.0477 16.3785Z"/><path d="M53.8375 19.0604C53.534 16.5282 51.2331 14.7233 48.7017 15.0316C46.1771 15.3391 44.378 17.6326 44.6807 20.1578C44.9834 22.6831 47.2735 24.4864 49.7993 24.1886C52.3318 23.8896 54.141 21.5921 53.8375 19.0604ZM48.8494 16.4159C49.5881 16.3557 50.2573 16.4334 50.8811 16.8625C51.5815 17.3442 52.022 18.0882 52.1676 18.9192C52.3329 19.8629 52.1775 20.8721 51.6097 21.6584C51.1127 22.3471 50.4916 22.6888 49.6642 22.8206C48.9084 22.8593 48.2407 22.8133 47.6042 22.363C46.9177 21.8793 46.4551 21.1394 46.3211 20.3104C46.1668 19.3959 46.3516 18.3436 46.8975 17.5829C47.3772 16.9146 48.047 16.544 48.8494 16.4159Z"/><path d="M76.3325 14.9885C76.3097 14.9893 76.2874 14.9909 76.2646 14.9938C75.1032 15.1309 74.0574 15.693 73.3272 16.6148C72.4942 17.6671 72.2082 19.0014 72.3725 20.321C72.5072 21.4799 73.1003 22.5367 74.0192 23.2563C75.1077 24.102 76.4879 24.3168 77.8327 24.1329C78.6109 24.0263 79.7804 23.6537 80.2779 23.0061C80.4178 22.8243 80.4882 22.6022 80.456 22.3728C80.4333 22.2117 80.3625 22.0575 80.2299 21.9587C80.0773 21.8452 79.8739 21.8309 79.6929 21.8663C79.4413 21.9154 79.2157 22.071 79.0018 22.2185C78.9567 22.2496 78.9122 22.2804 78.868 22.3097C77.9287 22.7978 76.887 23.0273 75.8538 22.6925C75.1187 22.4505 74.5114 21.9229 74.1697 21.2281C73.9915 20.873 73.9028 20.4959 73.8239 20.109H78.2566C78.441 20.1093 78.639 20.1156 78.8425 20.1221C79.368 20.139 79.9308 20.157 80.3946 20.0741C80.5268 20.0505 80.6529 19.9797 80.7489 19.8861C80.967 19.6738 81.0056 19.3732 80.9991 19.0831C80.9743 17.9726 80.4528 16.8772 79.6449 16.1259C78.7122 15.2582 77.587 14.932 76.3325 14.9885ZM76.4692 16.376C77.142 16.2971 77.8205 16.4688 78.375 16.8589C79.0376 17.3299 79.3858 17.9987 79.5253 18.7858C78.9634 18.7926 78.4007 18.791 77.8383 18.7895C77.5572 18.7887 77.276 18.788 76.9952 18.7882L73.8776 18.7923C74.0204 18.3127 74.186 17.877 74.4927 17.4751C74.9869 16.828 75.6711 16.481 76.4692 16.376Z"/><path d="M51.6448 11.6921C53.3086 11.6526 54.9813 11.6892 56.6463 11.6864C57.5945 11.6847 58.8059 11.6078 59.7264 11.7026C59.8745 11.7181 59.9924 11.76 60.1051 11.8584C60.2654 11.9984 60.372 12.2095 60.3776 12.4234C60.3825 12.6167 60.2642 12.8384 60.1246 12.9681C60.0181 13.0666 59.8911 13.106 59.7508 13.1288C59.3676 13.1906 58.9446 13.1544 58.5557 13.154L56.4901 13.1504L56.4892 20.8165C56.4921 21.4625 56.5739 22.8716 56.4766 23.4211C56.4461 23.5936 56.3835 23.7657 56.2647 23.8979C56.137 24.0398 55.9608 24.1114 55.7713 24.1155C55.5728 24.12 55.3791 24.0764 55.236 23.932C55.0675 23.7632 55.0057 23.5147 54.985 23.284C54.9467 22.8585 54.9817 22.4082 54.9866 21.9807C54.9939 21.3482 54.9882 20.7152 54.9878 20.0827L54.9927 13.1491C54.3057 13.1524 51.9277 13.2618 51.4407 13.0409C51.2629 12.9604 51.1512 12.8359 51.0867 12.6508C51.0179 12.454 51.0492 12.2441 51.1487 12.0634C51.2651 11.8519 51.4205 11.7612 51.6448 11.6921Z"/><path d="M40.7619 14.9946C41.3799 14.9596 41.9837 14.9991 42.5838 15.1598C43.2174 15.3294 44.1865 15.7032 44.5141 16.3045C44.6041 16.47 44.6511 16.6681 44.5876 16.8512C44.5226 17.0379 44.3453 17.1807 44.1666 17.2539C43.6454 17.4674 42.993 16.7495 42.5028 16.5648C41.7055 16.2642 40.7467 16.2809 39.9711 16.6429C39.2585 16.9756 38.7462 17.6057 38.4809 18.3375C38.173 19.1869 38.147 20.2946 38.5379 21.1224C38.9004 21.8895 39.5673 22.4257 40.3583 22.7051C41.2636 23.0253 42.2067 22.8548 43.0527 22.4493C43.3148 22.3073 43.5529 22.1181 43.8516 22.0563C44.0059 22.0246 44.1583 22.0413 44.2899 22.1324C44.4518 22.2447 44.5828 22.4668 44.6043 22.6628C44.6245 22.8467 44.553 23.0159 44.4389 23.1571C43.944 23.7705 42.8424 24.0788 42.0926 24.1708C40.7915 24.3302 39.4362 24.0695 38.3949 23.2392C37.416 22.4741 36.7932 21.3416 36.6714 20.1054C36.5424 18.8737 36.9036 17.6407 37.6768 16.6734C38.4606 15.7097 39.5301 15.1264 40.7619 14.9946Z"/><path d="M68.5523 12.6667C68.5784 12.6655 68.604 12.6642 68.6296 12.6634C68.8603 12.6561 69.0921 12.7179 69.2552 12.888C69.6441 13.2943 69.4895 14.6636 69.4851 15.2241C70.0147 15.2273 71.3034 15.0626 71.7004 15.4157C71.844 15.5438 71.9026 15.7212 71.903 15.9103C71.9038 16.0938 71.8562 16.2695 71.7199 16.3989C71.3489 16.7503 70.0094 16.612 69.4843 16.6088C69.4891 17.7347 69.337 21.2054 69.684 22.0596C70.2449 23.441 71.4608 22.226 72.1544 22.5526C72.3028 22.6226 72.4245 22.7703 72.4794 22.924C72.5575 23.1429 72.4879 23.3385 72.398 23.5395C72.3826 23.5566 72.3671 23.5732 72.3516 23.5899C71.9327 24.0264 71.1455 24.1313 70.5675 24.1395C69.8967 24.1492 69.2626 24.0353 68.7671 23.5391C68.4091 23.1803 68.1866 22.6881 68.0776 22.1983C67.9092 21.4417 67.9788 20.6042 67.9792 19.8325L67.9812 16.61C67.5744 16.6096 67.1672 16.6067 66.7605 16.6002C66.6933 16.5583 66.6279 16.5152 66.5689 16.4619C66.4082 16.3171 66.335 16.1011 66.3293 15.8884C66.3244 15.7102 66.3789 15.5345 66.5119 15.4112C66.8406 15.1069 67.5634 15.216 67.9812 15.2233C67.98 14.6371 67.8514 13.586 68.0727 13.0702C68.1712 12.8412 68.3319 12.7582 68.5523 12.6667Z"/><path fill-rule="evenodd" clip-rule="evenodd" d="M36.2793 12.4471C35.5784 12.3783 32.1478 12.4027 30.9576 12.4202C30.7388 12.4234 30.5358 12.4383 30.3576 12.4514C30.2059 12.4626 30.0722 12.4725 29.9618 12.4726C29.9618 12.4726 29.4881 12.5838 29.3345 12.7971C29.2341 12.9369 29.1998 13.1141 29.1758 13.281C29.0487 14.1672 28.9743 15.0714 28.9001 15.9726C28.8611 16.4469 28.8221 16.9204 28.7756 17.39L28.3242 21.9455C28.3122 22.0673 28.2914 22.2335 28.2677 22.4223C28.1913 23.0325 28.0854 23.8777 28.1539 24.2141C28.1918 24.4005 28.2906 24.5545 28.4555 24.6517C28.6181 24.7476 28.8025 24.8022 28.9876 24.8336L28.9893 24.8336C29.3721 24.8328 29.9492 24.8388 30.5941 24.8454C31.9312 24.8593 35.3311 24.8761 36.1217 24.8421C36.2793 24.8352 36.4464 24.8218 36.595 24.7656C36.7945 24.69 36.9586 24.5456 37.0375 24.3446C37.117 24.1425 37.0993 23.9159 37.0092 23.7206C36.9186 23.5237 36.7962 23.4188 36.5908 23.3529H29.7572C29.8712 22.3468 29.9732 21.3395 30.063 20.331L30.1437 19.5112L30.1515 19.4299C30.2049 19.4306 30.2752 19.4317 30.3588 19.4329C31.0548 19.4434 34.4424 19.4678 34.8741 19.4035C35.0325 19.3799 35.1804 19.34 35.2963 19.2233C35.4463 19.0719 35.5087 18.8629 35.4963 18.653C35.4858 18.4748 35.4069 18.2808 35.2715 18.1608C35.1811 18.081 35.0691 18.0294 34.9495 18.0127C34.5461 17.954 31.5343 17.9699 30.774 17.9797C30.5701 17.9823 30.4006 17.9845 30.2911 17.9846L30.6375 13.8977H34.3253C34.5133 13.8978 34.7092 13.9041 34.908 13.9105C35.3893 13.9259 35.8881 13.9419 36.3357 13.8725C36.4949 13.8481 36.6314 13.7936 36.7469 13.6777C36.8883 13.5357 36.9657 13.3209 36.9548 13.1216C36.9437 12.9182 36.8343 12.7246 36.6752 12.5997C36.554 12.5045 36.4312 12.4618 36.2793 12.4471Z"/>
    </symbol>
    <symbol id="icon-icon-29-457" viewBox="0 0 48 48">
      <path d="M16 18H32V20H16V18ZM16 23H32V25H16V23ZM16 28H32V30H16V28Z"/>
    </symbol>
  </defs>
</svg>
