<svg width="88" height="26" viewBox="0 0 88 26" xmlns="http://www.w3.org/2000/svg" fill="currentColor" id="icon-link-three"><path d="M7.472 18L6.64 15.232H2.464L1.632 18H0.096L3.632 6.976H5.552L9.072 18H7.472ZM2.832 14H6.272L4.56 8.24L2.832 14ZM13.7639 9.376C14.2652 9.376 14.7239 9.45067 15.1399 9.6C15.5559 9.73867 15.9559 9.968 16.3399 10.288L15.6359 11.216C15.3372 11.0027 15.0439 10.848 14.7559 10.752C14.4785 10.6453 14.1692 10.592 13.8279 10.592C13.1452 10.592 12.6119 10.864 12.2279 11.408C11.8545 11.952 11.6679 12.7573 11.6679 13.824C11.6679 14.8907 11.8545 15.68 12.2279 16.192C12.6012 16.6933 13.1345 16.944 13.8279 16.944C14.1585 16.944 14.4625 16.896 14.7399 16.8C15.0172 16.6933 15.3265 16.528 15.6679 16.304L16.3399 17.264C15.5719 17.8827 14.7132 18.192 13.7639 18.192C12.6225 18.192 11.7212 17.808 11.0599 17.04C10.4092 16.272 10.0839 15.2107 10.0839 13.856C10.0839 12.96 10.2332 12.176 10.5319 11.504C10.8305 10.832 11.2519 10.3093 11.7959 9.936C12.3505 9.56267 13.0065 9.376 13.7639 9.376ZM21.188 9.376C22.372 9.376 23.2893 9.77067 23.94 10.56C24.6013 11.3493 24.932 12.4213 24.932 13.776C24.932 14.6507 24.7827 15.424 24.484 16.096C24.1853 16.7573 23.7533 17.2747 23.188 17.648C22.6227 18.0107 21.9507 18.192 21.172 18.192C19.988 18.192 19.0653 17.7973 18.404 17.008C17.7427 16.2187 17.412 15.1467 17.412 13.792C17.412 12.9173 17.5613 12.1493 17.86 11.488C18.1587 10.816 18.5907 10.2987 19.156 9.936C19.7213 9.56267 20.3987 9.376 21.188 9.376ZM21.188 10.56C19.7267 10.56 18.996 11.6373 18.996 13.792C18.996 15.936 19.7213 17.008 21.172 17.008C22.6227 17.008 23.348 15.9307 23.348 13.776C23.348 11.632 22.628 10.56 21.188 10.56ZM31.2358 9.376C32.3131 9.376 33.1024 9.76 33.6038 10.528C34.1051 11.296 34.3558 12.3787 34.3558 13.776C34.3558 15.0987 34.0678 16.1653 33.4918 16.976C32.9158 17.7867 32.0998 18.192 31.0438 18.192C30.1051 18.192 29.3691 17.872 28.8358 17.232V21.232L27.3638 21.408V9.568H28.6278L28.7398 10.704C29.0491 10.2773 29.4224 9.952 29.8598 9.728C30.2971 9.49333 30.7558 9.376 31.2358 9.376ZM30.6918 16.992C32.0784 16.992 32.7718 15.92 32.7718 13.776C32.7718 11.6213 32.1371 10.544 30.8678 10.544C30.4518 10.544 30.0731 10.6667 29.7318 10.912C29.3904 11.1573 29.0918 11.472 28.8358 11.856V15.968C29.0491 16.2987 29.3158 16.5547 29.6358 16.736C29.9558 16.9067 30.3078 16.992 30.6918 16.992ZM42.1535 9.568L41.9775 10.768H39.2735V18H37.8015V10.768H35.0175V9.568H42.1535ZM50.2362 18H48.7803V14.192C48.7803 13.552 48.8016 12.944 48.8443 12.368C48.8869 11.792 48.9243 11.4133 48.9563 11.232L45.4203 18H43.6763V9.568H45.1323V13.376C45.1323 13.9413 45.1109 14.528 45.0683 15.136C45.0256 15.7333 44.9936 16.1173 44.9723 16.288L48.4603 9.568H50.2362V18ZM61.526 18H60.086L59.702 14.016C59.6593 13.6 59.6327 13.1413 59.622 12.64C59.6113 12.128 59.606 11.5787 59.606 10.992L57.686 17.072H56.294L54.502 11.008C54.502 12.416 54.4807 13.4133 54.438 14L54.134 18H52.71L53.462 9.568H55.366L57.014 15.6L58.822 9.568H60.758L61.526 18ZM70.3724 13.536C70.3724 13.7813 70.3617 14.032 70.3404 14.288H64.9644C65.0284 15.216 65.263 15.8987 65.6684 16.336C66.0737 16.7733 66.5964 16.992 67.2364 16.992C67.6417 16.992 68.015 16.9333 68.3564 16.816C68.6977 16.6987 69.055 16.512 69.4284 16.256L70.0684 17.136C69.1724 17.84 68.191 18.192 67.1244 18.192C65.951 18.192 65.0337 17.808 64.3724 17.04C63.7217 16.272 63.3964 15.216 63.3964 13.872C63.3964 12.9973 63.535 12.224 63.8124 11.552C64.1004 10.8693 64.5057 10.336 65.0284 9.952C65.5617 9.568 66.1857 9.376 66.9004 9.376C68.0204 9.376 68.879 9.744 69.4764 10.48C70.0737 11.216 70.3724 12.2347 70.3724 13.536ZM68.9164 13.104C68.9164 12.272 68.751 11.6373 68.4204 11.2C68.0897 10.7627 67.5937 10.544 66.9324 10.544C65.727 10.544 65.071 11.4293 64.9644 13.2H68.9164V13.104ZM77.6991 18V14.288H74.1951V18H72.7231V9.568H74.1951V13.104H77.6991V9.568H79.1711V18H77.6991ZM87.9035 9.568L87.7275 10.768H85.0235V18H83.5515V10.768H80.7675V9.568H87.9035Z"/></svg>