<svg width="72" height="26" viewBox="0 0 72 26" xmlns="http://www.w3.org/2000/svg" fill="currentColor" id="icon-link-two"><path d="M9.2 6.976V18H7.68V8.272H3.12V18H1.6V6.976H9.2ZM18.6849 13.536C18.6849 13.7813 18.6742 14.032 18.6529 14.288H13.2769C13.3409 15.216 13.5755 15.8987 13.9809 16.336C14.3862 16.7733 14.9089 16.992 15.5489 16.992C15.9542 16.992 16.3275 16.9333 16.6689 16.816C17.0102 16.6987 17.3675 16.512 17.7409 16.256L18.3809 17.136C17.4849 17.84 16.5035 18.192 15.4369 18.192C14.2635 18.192 13.3462 17.808 12.6849 17.04C12.0342 16.272 11.7089 15.216 11.7089 13.872C11.7089 12.9973 11.8475 12.224 12.1249 11.552C12.4129 10.8693 12.8182 10.336 13.3409 9.952C13.8742 9.568 14.4982 9.376 15.2129 9.376C16.3329 9.376 17.1915 9.744 17.7889 10.48C18.3862 11.216 18.6849 12.2347 18.6849 13.536ZM17.2289 13.104C17.2289 12.272 17.0635 11.6373 16.7329 11.2C16.4022 10.7627 15.9062 10.544 15.2449 10.544C14.0395 10.544 13.3835 11.4293 13.2769 13.2H17.2289V13.104ZM24.9076 9.376C25.985 9.376 26.7743 9.76 27.2756 10.528C27.777 11.296 28.0276 12.3787 28.0276 13.776C28.0276 15.0987 27.7396 16.1653 27.1636 16.976C26.5876 17.7867 25.7716 18.192 24.7156 18.192C23.777 18.192 23.041 17.872 22.5076 17.232V21.232L21.0356 21.408V9.568H22.2996L22.4116 10.704C22.721 10.2773 23.0943 9.952 23.5316 9.728C23.969 9.49333 24.4276 9.376 24.9076 9.376ZM24.3636 16.992C25.7503 16.992 26.4436 15.92 26.4436 13.776C26.4436 11.6213 25.809 10.544 24.5396 10.544C24.1236 10.544 23.745 10.6667 23.4036 10.912C23.0623 11.1573 22.7636 11.472 22.5076 11.856V15.968C22.721 16.2987 22.9876 16.5547 23.3076 16.736C23.6276 16.9067 23.9796 16.992 24.3636 16.992ZM36.9036 13.536C36.9036 13.7813 36.893 14.032 36.8716 14.288H31.4956C31.5596 15.216 31.7943 15.8987 32.1996 16.336C32.605 16.7733 33.1276 16.992 33.7676 16.992C34.173 16.992 34.5463 16.9333 34.8876 16.816C35.229 16.6987 35.5863 16.512 35.9596 16.256L36.5996 17.136C35.7036 17.84 34.7223 18.192 33.6556 18.192C32.4823 18.192 31.565 17.808 30.9036 17.04C30.253 16.272 29.9276 15.216 29.9276 13.872C29.9276 12.9973 30.0663 12.224 30.3436 11.552C30.6316 10.8693 31.037 10.336 31.5596 9.952C32.093 9.568 32.717 9.376 33.4316 9.376C34.5516 9.376 35.4103 9.744 36.0076 10.48C36.605 11.216 36.9036 12.2347 36.9036 13.536ZM35.4476 13.104C35.4476 12.272 35.2823 11.6373 34.9516 11.2C34.621 10.7627 34.125 10.544 33.4636 10.544C32.2583 10.544 31.6023 11.4293 31.4956 13.2H35.4476V13.104ZM43.7024 13.424C45.1317 13.5627 45.8464 14.224 45.8464 15.408C45.8464 16.2933 45.521 16.9493 44.8704 17.376C44.2304 17.792 43.3717 18 42.2944 18H39.2544V9.68C40.2464 9.47733 41.169 9.376 42.0224 9.376C43.0677 9.376 43.8944 9.57333 44.5024 9.968C45.1104 10.3627 45.4144 10.928 45.4144 11.664C45.4144 12.144 45.2704 12.5333 44.9824 12.832C44.6944 13.1307 44.2677 13.328 43.7024 13.424ZM42.0384 10.512C41.5904 10.512 41.153 10.544 40.7264 10.608V12.992H42.3104C42.8224 12.992 43.217 12.896 43.4944 12.704C43.7717 12.512 43.9104 12.1867 43.9104 11.728C43.9104 11.3013 43.7557 10.992 43.4464 10.8C43.137 10.608 42.6677 10.512 42.0384 10.512ZM42.2944 16.848C42.9237 16.848 43.4144 16.7413 43.7664 16.528C44.1184 16.3147 44.2944 15.9307 44.2944 15.376C44.2944 14.9173 44.145 14.5867 43.8464 14.384C43.5477 14.1813 43.041 14.08 42.3264 14.08H40.7264V16.848H42.2944ZM53.8094 16.032C53.8094 16.3733 53.868 16.6293 53.9854 16.8C54.1027 16.96 54.2787 17.0827 54.5134 17.168L54.1774 18.192C53.74 18.1387 53.388 18.016 53.1214 17.824C52.8547 17.632 52.6574 17.3333 52.5294 16.928C51.964 17.7707 51.1267 18.192 50.0174 18.192C49.1854 18.192 48.5294 17.9573 48.0494 17.488C47.5694 17.0187 47.3294 16.4053 47.3294 15.648C47.3294 14.752 47.6494 14.064 48.2894 13.584C48.94 13.104 49.8574 12.864 51.0414 12.864H52.3374V12.24C52.3374 11.6427 52.1934 11.216 51.9054 10.96C51.6174 10.704 51.1747 10.576 50.5774 10.576C49.9587 10.576 49.2014 10.7253 48.3054 11.024L47.9374 9.952C48.9827 9.568 49.9534 9.376 50.8494 9.376C51.8414 9.376 52.5827 9.62133 53.0734 10.112C53.564 10.592 53.8094 11.28 53.8094 12.176V16.032ZM50.3534 17.088C51.196 17.088 51.8574 16.6507 52.3374 15.776V13.84H51.2334C49.676 13.84 48.8974 14.416 48.8974 15.568C48.8974 16.0693 49.02 16.448 49.2654 16.704C49.5107 16.96 49.8734 17.088 50.3534 17.088ZM58.3045 18H56.8325V9.568H62.0965L61.9045 10.784H58.3045V18ZM70.2519 18H68.7959V14.192C68.7959 13.552 68.8172 12.944 68.8599 12.368C68.9025 11.792 68.9399 11.4133 68.9719 11.232L65.4359 18H63.6919V9.568H65.1479V13.376C65.1479 13.9413 65.1265 14.528 65.0839 15.136C65.0412 15.7333 65.0092 16.1173 64.9879 16.288L68.4759 9.568H70.2519V18Z"/></svg>