<svg width="56" height="26" viewBox="0 0 56 26" xmlns="http://www.w3.org/2000/svg" fill="currentColor" id="icon-nav-link-dropdown"><path d="M6.464 12.176C7.22133 12.304 7.83467 12.5707 8.304 12.976C8.77333 13.3813 9.008 14.0107 9.008 14.864C9.008 16.9547 7.552 18 4.64 18H1.6V6.976H4.208C5.60533 6.976 6.672 7.20533 7.408 7.664C8.15467 8.12267 8.528 8.82133 8.528 9.76C8.528 10.4 8.32533 10.9333 7.92 11.36C7.52533 11.7867 7.04 12.0587 6.464 12.176ZM3.12 8.176V11.648H4.784C5.424 11.648 5.94667 11.4933 6.352 11.184C6.768 10.8747 6.976 10.4373 6.976 9.872C6.976 9.232 6.75733 8.78933 6.32 8.544C5.89333 8.29867 5.24267 8.176 4.368 8.176H3.12ZM4.64 16.784C5.536 16.784 6.21867 16.6507 6.688 16.384C7.168 16.1173 7.408 15.6107 7.408 14.864C7.408 14.1387 7.17867 13.616 6.72 13.296C6.26133 12.976 5.664 12.816 4.928 12.816H3.12V16.784H4.64ZM12.7264 9.568V18H11.2544V9.568H12.7264ZM11.9744 5.52C12.2837 5.52 12.5344 5.616 12.7264 5.808C12.9184 6 13.0144 6.24 13.0144 6.528C13.0144 6.816 12.9184 7.056 12.7264 7.248C12.5344 7.42933 12.2837 7.52 11.9744 7.52C11.6757 7.52 11.4304 7.42933 11.2384 7.248C11.0464 7.056 10.9504 6.816 10.9504 6.528C10.9504 6.24 11.0464 6 11.2384 5.808C11.4304 5.616 11.6757 5.52 11.9744 5.52ZM22.538 16.816V20.4H21.338L21.098 18H15.69L15.45 20.4H14.25V16.816H14.842C15.098 16.6453 15.3007 16.4533 15.45 16.24C15.5993 16.016 15.7327 15.632 15.85 15.088C15.978 14.544 16.0793 13.7493 16.154 12.704L16.378 9.568H21.658V16.816H22.538ZM20.186 10.736H17.706L17.578 12.512C17.5033 13.504 17.418 14.2667 17.322 14.8C17.226 15.3333 17.0873 15.744 16.906 16.032C16.7353 16.32 16.4847 16.5813 16.154 16.816H20.186V10.736ZM26.1639 18H24.6919V9.568H29.9559L29.7639 10.784H26.1639V18ZM34.9273 18.048C34.5966 19.0293 34.1326 19.8027 33.5353 20.368C32.9486 20.944 32.1059 21.2907 31.0073 21.408L30.8473 20.256C31.4019 20.16 31.8446 20.0213 32.1753 19.84C32.5059 19.6587 32.7673 19.424 32.9593 19.136C33.1619 18.8587 33.3486 18.48 33.5193 18H33.0233L30.1913 9.568H31.7593L34.0153 16.928L36.2233 9.568H37.7433L34.9273 18.048ZM45.7463 9.568L43.1863 13.472L46.0503 18H44.3063L41.9703 14.112H40.8983V18H39.4263V9.568H40.8983V12.96H42.0023L44.1303 9.568H45.7463ZM54.2831 18H52.8271V14.192C52.8271 13.552 52.8485 12.944 52.8911 12.368C52.9338 11.792 52.9711 11.4133 53.0031 11.232L49.4671 18H47.7231V9.568H49.1791V13.376C49.1791 13.9413 49.1578 14.528 49.1151 15.136C49.0725 15.7333 49.0405 16.1173 49.0191 16.288L52.5071 9.568H54.2831V18Z"/></svg>