<svg width="69" height="26" viewBox="0 0 69 26" xmlns="http://www.w3.org/2000/svg" fill="currentColor" id="icon-nav-link-dropdown"><path d="M8.96 6.976L5.904 12.144L9.264 18H7.504L4.624 12.832H3.12V18H1.6V6.976H3.12V11.584H4.64L7.36 6.976H8.96ZM13.8911 9.376C15.0751 9.376 15.9925 9.77067 16.6431 10.56C17.3045 11.3493 17.6351 12.4213 17.6351 13.776C17.6351 14.6507 17.4858 15.424 17.1871 16.096C16.8885 16.7573 16.4565 17.2747 15.8911 17.648C15.3258 18.0107 14.6538 18.192 13.8751 18.192C12.6911 18.192 11.7685 17.7973 11.1071 17.008C10.4458 16.2187 10.1151 15.1467 10.1151 13.792C10.1151 12.9173 10.2645 12.1493 10.5631 11.488C10.8618 10.816 11.2938 10.2987 11.8591 9.936C12.4245 9.56267 13.1018 9.376 13.8911 9.376ZM13.8911 10.56C12.4298 10.56 11.6991 11.6373 11.6991 13.792C11.6991 15.936 12.4245 17.008 13.8751 17.008C15.3258 17.008 16.0511 15.9307 16.0511 13.776C16.0511 11.632 15.3311 10.56 13.8911 10.56ZM25.0429 18V14.288H21.5389V18H20.0669V9.568H21.5389V13.104H25.0429V9.568H26.5149V18H25.0429ZM35.2473 9.568L35.0713 10.768H32.3673V18H30.8953V10.768H28.1113V9.568H35.2473ZM41.8094 16.032C41.8094 16.3733 41.868 16.6293 41.9854 16.8C42.1027 16.96 42.2787 17.0827 42.5134 17.168L42.1774 18.192C41.74 18.1387 41.388 18.016 41.1214 17.824C40.8547 17.632 40.6574 17.3333 40.5294 16.928C39.964 17.7707 39.1267 18.192 38.0174 18.192C37.1854 18.192 36.5294 17.9573 36.0494 17.488C35.5694 17.0187 35.3294 16.4053 35.3294 15.648C35.3294 14.752 35.6494 14.064 36.2894 13.584C36.94 13.104 37.8574 12.864 39.0414 12.864H40.3374V12.24C40.3374 11.6427 40.1934 11.216 39.9054 10.96C39.6174 10.704 39.1747 10.576 38.5774 10.576C37.9587 10.576 37.2014 10.7253 36.3054 11.024L35.9374 9.952C36.9827 9.568 37.9534 9.376 38.8494 9.376C39.8414 9.376 40.5827 9.62133 41.0734 10.112C41.564 10.592 41.8094 11.28 41.8094 12.176V16.032ZM38.3534 17.088C39.196 17.088 39.8574 16.6507 40.3374 15.776V13.84H39.2334C37.676 13.84 36.8974 14.416 36.8974 15.568C36.8974 16.0693 37.02 16.448 37.2654 16.704C37.5107 16.96 37.8734 17.088 38.3534 17.088ZM51.1525 9.568L48.5925 13.472L51.4565 18H49.7125L47.3765 14.112H46.3045V18H44.8325V9.568H46.3045V12.96H47.4085L49.5365 9.568H51.1525ZM58.8254 9.568L58.6494 10.768H55.9454V18H54.4734V10.768H51.6894V9.568H58.8254ZM66.9081 18H65.4521V14.192C65.4521 13.552 65.4735 12.944 65.5161 12.368C65.5588 11.792 65.5961 11.4133 65.6281 11.232L62.0921 18H60.3481V9.568H61.8041V13.376C61.8041 13.9413 61.7828 14.528 61.7401 15.136C61.6975 15.7333 61.6655 16.1173 61.6441 16.288L65.1321 9.568H66.9081V18Z"/></svg>