<svg width="61" height="26" viewBox="0 0 61 26" xmlns="http://www.w3.org/2000/svg" fill="currentColor" id="icon-nav-link-dropdown"><path d="M7.968 6.976L7.744 8.288H3.12V18H1.6V6.976H7.968ZM13.7313 16.032C13.7313 16.3733 13.7899 16.6293 13.9073 16.8C14.0246 16.96 14.2006 17.0827 14.4353 17.168L14.0993 18.192C13.6619 18.1387 13.3099 18.016 13.0433 17.824C12.7766 17.632 12.5793 17.3333 12.4513 16.928C11.8859 17.7707 11.0486 18.192 9.93925 18.192C9.10725 18.192 8.45125 17.9573 7.97125 17.488C7.49125 17.0187 7.25125 16.4053 7.25125 15.648C7.25125 14.752 7.57125 14.064 8.21125 13.584C8.86192 13.104 9.77925 12.864 10.9633 12.864H12.2593V12.24C12.2593 11.6427 12.1153 11.216 11.8273 10.96C11.5393 10.704 11.0966 10.576 10.4993 10.576C9.88058 10.576 9.12325 10.7253 8.22725 11.024L7.85925 9.952C8.90458 9.568 9.87525 9.376 10.7713 9.376C11.7633 9.376 12.5046 9.62133 12.9953 10.112C13.4859 10.592 13.7313 11.28 13.7313 12.176V16.032ZM10.2753 17.088C11.1179 17.088 11.7793 16.6507 12.2593 15.776V13.84H11.1553C9.59792 13.84 8.81925 14.416 8.81925 15.568C8.81925 16.0693 8.94192 16.448 9.18725 16.704C9.43258 16.96 9.79525 17.088 10.2753 17.088ZM22.9304 9.568V18H21.4584V10.768H18.8504L18.6104 13.584C18.5144 14.7253 18.3917 15.5787 18.2424 16.144C18.1037 16.7093 17.8797 17.1467 17.5704 17.456C17.2717 17.7547 16.813 18 16.1944 18.192L15.8264 17.024C16.189 16.896 16.445 16.7307 16.5944 16.528C16.7437 16.3253 16.8557 16.016 16.9304 15.6C17.005 15.184 17.085 14.4587 17.1704 13.424L17.5064 9.568H22.9304ZM32.3411 13.536C32.3411 13.7813 32.3305 14.032 32.3091 14.288H26.9331C26.9971 15.216 27.2318 15.8987 27.6371 16.336C28.0425 16.7733 28.5651 16.992 29.2051 16.992C29.6105 16.992 29.9838 16.9333 30.3251 16.816C30.6665 16.6987 31.0238 16.512 31.3971 16.256L32.0371 17.136C31.1411 17.84 30.1598 18.192 29.0931 18.192C27.9198 18.192 27.0025 17.808 26.3411 17.04C25.6905 16.272 25.3651 15.216 25.3651 13.872C25.3651 12.9973 25.5038 12.224 25.7811 11.552C26.0691 10.8693 26.4745 10.336 26.9971 9.952C27.5305 9.568 28.1545 9.376 28.8691 9.376C29.9891 9.376 30.8478 9.744 31.4451 10.48C32.0425 11.216 32.3411 12.2347 32.3411 13.536ZM30.8851 13.104C30.8851 12.272 30.7198 11.6373 30.3891 11.2C30.0585 10.7627 29.5625 10.544 28.9011 10.544C27.6958 10.544 27.0398 11.4293 26.9331 13.2H30.8851V13.104ZM38.5639 9.376C39.6412 9.376 40.4305 9.76 40.9319 10.528C41.4332 11.296 41.6839 12.3787 41.6839 13.776C41.6839 15.0987 41.3959 16.1653 40.8199 16.976C40.2439 17.7867 39.4279 18.192 38.3719 18.192C37.4332 18.192 36.6972 17.872 36.1639 17.232V21.232L34.6919 21.408V9.568H35.9559L36.0679 10.704C36.3772 10.2773 36.7505 9.952 37.1879 9.728C37.6252 9.49333 38.0839 9.376 38.5639 9.376ZM38.0199 16.992C39.4065 16.992 40.0999 15.92 40.0999 13.776C40.0999 11.6213 39.4652 10.544 38.1959 10.544C37.7799 10.544 37.4012 10.6667 37.0599 10.912C36.7185 11.1573 36.4199 11.472 36.1639 11.856V15.968C36.3772 16.2987 36.6439 16.5547 36.9639 16.736C37.2839 16.9067 37.6359 16.992 38.0199 16.992ZM50.5599 13.536C50.5599 13.7813 50.5492 14.032 50.5279 14.288H45.1519C45.2159 15.216 45.4505 15.8987 45.8559 16.336C46.2612 16.7733 46.7839 16.992 47.4239 16.992C47.8292 16.992 48.2025 16.9333 48.5439 16.816C48.8852 16.6987 49.2425 16.512 49.6159 16.256L50.2559 17.136C49.3599 17.84 48.3785 18.192 47.3119 18.192C46.1385 18.192 45.2212 17.808 44.5599 17.04C43.9092 16.272 43.5839 15.216 43.5839 13.872C43.5839 12.9973 43.7225 12.224 43.9999 11.552C44.2879 10.8693 44.6932 10.336 45.2159 9.952C45.7492 9.568 46.3732 9.376 47.0879 9.376C48.2079 9.376 49.0665 9.744 49.6639 10.48C50.2612 11.216 50.5599 12.2347 50.5599 13.536ZM49.1039 13.104C49.1039 12.272 48.9385 11.6373 48.6079 11.2C48.2772 10.7627 47.7812 10.544 47.1199 10.544C45.9145 10.544 45.2585 11.4293 45.1519 13.2H49.1039V13.104ZM58.5304 9.568V18H57.0584V14.768H55.2184L53.4424 18H51.7944L53.8104 14.432C52.8184 13.9627 52.3224 13.2 52.3224 12.144C52.3224 11.312 52.621 10.6773 53.2184 10.24C53.8157 9.792 54.653 9.568 55.7304 9.568H58.5304ZM57.0584 13.648V10.704H55.6984C55.0904 10.704 54.6317 10.8213 54.3224 11.056C54.0237 11.28 53.8744 11.6427 53.8744 12.144C53.8744 12.6773 54.013 13.0613 54.2904 13.296C54.5784 13.5307 55.037 13.648 55.6664 13.648H57.0584Z"/></svg>